STARTFONT 2.3
FONT -FontForge-Monoton-Book-R-Normal--20-200-72-72-P-136-ISO10646-1
SIZE 20 72 72  2
FONTBOUNDINGBOX 37 31 -3 -8
COMMENT "Generated by fontforge, http://fontforge.sourceforge.net"
COMMENT "Copyright (c) 2011 by vernon adams. All rights reserved."
STARTPROPERTIES 41
FOUNDRY "FontForge"
FAMILY_NAME "Monoton"
WEIGHT_NAME "Book"
SLANT "R"
SETWIDTH_NAME "Normal"
ADD_STYLE_NAME ""
PIXEL_SIZE 20
POINT_SIZE 200
RESOLUTION_X 72
RESOLUTION_Y 72
SPACING "P"
AVERAGE_WIDTH 136
CHARSET_REGISTRY "ISO10646"
CHARSET_ENCODING "1"
FONTNAME_REGISTRY ""
CHARSET_COLLECTIONS "ISO8859-2 ISO8859-9 ISO8859-4 ISO10646-1"
BITS_PER_PIXEL 2
FONT_NAME "Monoton-Regular"
FACE_NAME "Monoton"
COPYRIGHT "Copyright (c) 2011 by vernon adams. All rights reserved."
FONT_VERSION "1.000"
FONT_ASCENT 16
FONT_DESCENT 4
UNDERLINE_POSITION -1
UNDERLINE_THICKNESS 1
X_HEIGHT 13
CAP_HEIGHT 15
DEFAULT_CHAR 1
RAW_ASCENT 799
RAW_DESCENT 200
NORM_SPACE 2
RELATIVE_WEIGHT 40
RELATIVE_SETWIDTH 50
SUPERSCRIPT_X 0
SUPERSCRIPT_Y 6
SUPERSCRIPT_SIZE 11
SUBSCRIPT_X 0
SUBSCRIPT_Y 1
SUBSCRIPT_SIZE 11
AVG_LOWERCASE_WIDTH 147
AVG_UPPERCASE_WIDTH 159
ENDPROPERTIES
CHARS 372
STARTCHAR glyph1.dup1
ENCODING 0
SWIDTH 108 0
DWIDTH 2 0
BBX 1 1 0 0
BITMAP
00
ENDCHAR
STARTCHAR uni0002
ENCODING 2
SWIDTH 108 0
DWIDTH 2 0
BBX 1 1 0 0
BITMAP
00
ENDCHAR
STARTCHAR uni0009
ENCODING 9
SWIDTH 108 0
DWIDTH 2 0
BBX 1 1 0 0
BITMAP
00
ENDCHAR
STARTCHAR uni000A
ENCODING 10
SWIDTH 108 0
DWIDTH 2 0
BBX 1 1 0 0
BITMAP
00
ENDCHAR
STARTCHAR uni000D
ENCODING 13
SWIDTH 108 0
DWIDTH 2 0
BBX 1 1 0 0
BITMAP
00
ENDCHAR
STARTCHAR space
ENCODING 32
SWIDTH 108 0
DWIDTH 2 0
BBX 1 1 0 0
BITMAP
00
ENDCHAR
STARTCHAR exclam
ENCODING 33
SWIDTH 336 0
DWIDTH 7 0
BBX 5 17 1 -1
BITMAP
A580
A580
A580
A580
A580
A580
A580
A580
A580
A580
A580
6580
0000
AA80
5540
5540
AA80
ENDCHAR
STARTCHAR quotedbl
ENCODING 34
SWIDTH 538 0
DWIDTH 11 0
BBX 10 6 0 10
BITMAP
6949A0
6949A0
6949A0
6949A0
6949A0
6949A0
ENDCHAR
STARTCHAR numbersign
ENCODING 35
SWIDTH 1014 0
DWIDTH 20 0
BBX 20 18 0 -1
BITMAP
0002980960
0005941A50
0009A01690
01A96AA59A
015A656595
0156556954
06A69A9A68
0025809600
0029809600
005941A500
009A016900
0096025800
19A6A65990
2A66A69A90
166955A540
5659596540
0298096000
05941A5000
ENDCHAR
STARTCHAR dollar
ENCODING 36
SWIDTH 686 0
DWIDTH 14 0
BBX 13 22 0 -3
BITMAP
00220000
00210000
006AA400
06555640
19956980
266AA500
699A9400
59601000
596A5000
29956800
265AA600
09AA9980
02956580
0015A680
0055A680
01556580
09AA9980
6696A600
1A556800
016A9000
00220000
00220000
ENDCHAR
STARTCHAR percent
ENCODING 37
SWIDTH 1504 0
DWIDTH 30 0
BBX 30 19 0 -2
BITMAP
006A400000000000
0655640258000000
1995980298000000
266A660594000000
69999A09A0000000
5A625A4960014000
5A625A4A6069A400
59999A16519A9600
2666662686655980
1995992589996680
066A64298A669650
01AA90594A585A60
0000009A0A699A60
0000009609656650
000000A5059A9980
000001650269A640
0000026800A55900
00000258001A9000
0000014400000000
ENDCHAR
STARTCHAR ampersand
ENCODING 38
SWIDTH 1029 0
DWIDTH 21 0
BBX 20 17 0 0
BITMAP
0001540000
01AAA85A60
0A6AA85A60
1695545A60
25A5545A60
69AAA85A60
5960005A60
296AAA9A6A
25A5555A65
25A5555A65
696AAA9A6A
5960005A60
699AAA5969
266AA925A9
1995551694
0A5AAA0969
01AAAA01A9
ENDCHAR
STARTCHAR quotesingle
ENCODING 39
SWIDTH 257 0
DWIDTH 5 0
BBX 5 6 0 10
BITMAP
6940
6940
6940
6940
6940
6940
ENDCHAR
STARTCHAR parenleft
ENCODING 40
SWIDTH 410 0
DWIDTH 8 0
BBX 8 19 0 -2
BITMAP
0069
0655
0994
2669
2599
6960
5960
5960
5960
5960
5960
5960
5960
29A9
2694
1659
0969
0194
0015
ENDCHAR
STARTCHAR parenright
ENCODING 41
SWIDTH 408 0
DWIDTH 8 0
BBX 8 19 0 -2
BITMAP
6900
1590
1664
6998
6669
09A5
05A5
05A5
05A5
05A5
05A5
05A5
09A5
6965
1658
6598
6960
1680
1400
ENDCHAR
STARTCHAR asterisk
ENCODING 42
SWIDTH 664 0
DWIDTH 13 0
BBX 13 12 0 2
BITMAP
00294000
04294400
0669A500
19699A00
6698A640
0A6E6800
0A6E5900
66886640
19A99A00
06696800
04294400
00294000
ENDCHAR
STARTCHAR plus
ENCODING 43
SWIDTH 601 0
DWIDTH 12 0
BBX 12 10 0 3
BITMAP
015540
016980
016980
6A69E9
166994
166994
2A69E9
016980
016980
005440
ENDCHAR
STARTCHAR comma
ENCODING 44
SWIDTH 252 0
DWIDTH 5 0
BBX 5 7 0 -3
BITMAP
1500
5940
5940
0940
1A40
1600
2800
ENDCHAR
STARTCHAR hyphen
ENCODING 45
SWIDTH 473 0
DWIDTH 9 0
BBX 8 4 1 6
BITMAP
AAA9
5555
5555
AAA9
ENDCHAR
STARTCHAR period
ENCODING 46
SWIDTH 255 0
DWIDTH 5 0
BBX 4 4 1 0
BITMAP
A8
54
A9
A9
ENDCHAR
STARTCHAR slash
ENCODING 47
SWIDTH 447 0
DWIDTH 9 0
BBX 9 18 0 -2
BITMAP
005940
009A00
009600
00A600
016500
026800
025800
029800
059400
09A000
096000
0A6000
165000
268000
258000
298000
594000
5A0000
ENDCHAR
STARTCHAR zero
ENCODING 48
SWIDTH 843 0
DWIDTH 17 0
BBX 17 18 0 -1
BITMAP
001AA90000
00A5568000
02695A6000
099AA99800
1666966500
259919A600
29A0069A00
5960025A00
5A60025940
5A60025940
5960025A00
29A4059600
269959A600
1665566900
0996A59800
026A696000
00A5568000
0006A40000
ENDCHAR
STARTCHAR one
ENCODING 49
SWIDTH 426 0
DWIDTH 9 0
BBX 8 17 0 0
BITMAP
1554
6AA9
6AA9
1555
1AAA
0596
0596
0596
0596
0596
0596
0596
0596
0596
0596
0596
0596
ENDCHAR
STARTCHAR two
ENCODING 50
SWIDTH 583 0
DWIDTH 12 0
BBX 11 17 0 0
BITMAP
1AA900
155590
255A64
2AA998
16A668
140968
000A68
002598
009960
01A650
025980
09A600
266900
2AAAA0
155550
2AAAA0
6AAAA4
ENDCHAR
STARTCHAR three
ENCODING 51
SWIDTH 612 0
DWIDTH 12 0
BBX 12 18 0 -1
BITMAP
5AAA00
155590
255664
2AA958
16A665
1409A6
01A9A6
0156A5
01AA68
02A998
015665
0159A6
1559A6
155665
1AA998
2A5A64
555590
16A900
ENDCHAR
STARTCHAR four
ENCODING 52
SWIDTH 622 0
DWIDTH 12 0
BBX 12 16 0 0
BITMAP
006994
009A60
01A650
026580
029980
099600
096614
265958
259858
599559
155555
6AAAAA
6AAAA9
155559
000058
000058
ENDCHAR
STARTCHAR five
ENCODING 53
SWIDTH 691 0
DWIDTH 14 0
BBX 14 18 0 -1
BITMAP
05555400
1AAAA900
2AAAAA00
15555500
2A955500
29800000
29AA9000
29955900
2995A640
29AA9980
299A6680
00009650
00559650
01556680
15AA5980
5696A600
19556800
016A4000
ENDCHAR
STARTCHAR six
ENCODING 54
SWIDTH 781 0
DWIDTH 16 0
BBX 15 18 0 -1
BITMAP
001AA900
02955590
09A55A60
165AA940
2596A500
29A41000
5966A900
59655680
59695A60
596AA998
5966A658
59640968
29A55A68
26A55658
1A9AA594
0A696960
01955680
001AA400
ENDCHAR
STARTCHAR seven
ENCODING 55
SWIDTH 631 0
DWIDTH 13 0
BBX 12 17 0 0
BITMAP
155000
6AA69A
6AA596
1559A6
155965
000A68
001658
002698
002594
0029A0
005960
009A60
009650
00A680
016580
016980
025940
ENDCHAR
STARTCHAR eight
ENCODING 56
SWIDTH 808 0
DWIDTH 16 0
BBX 16 18 0 -1
BITMAP
006AA900
06555590
19955664
266AA998
299AA665
596009A5
596AA9A5
259556A5
265AAA68
196AA998
26955665
596559A5
596559A5
29955665
266AA998
09A55A64
02955590
006AA900
ENDCHAR
STARTCHAR nine
ENCODING 57
SWIDTH 782 0
DWIDTH 16 0
BBX 15 18 0 -1
BITMAP
006AA400
06555640
19A56990
266AA660
699A9998
5A602658
5A655A68
69955A68
266A9A68
09AA9A68
02955A68
001A5A58
00156658
00955994
026AA660
09A96990
06955A00
005A9400
ENDCHAR
STARTCHAR colon
ENCODING 58
SWIDTH 262 0
DWIDTH 5 0
BBX 4 10 1 2
BITMAP
A9
A9
54
A9
00
54
54
A9
A9
54
ENDCHAR
STARTCHAR semicolon
ENCODING 59
SWIDTH 261 0
DWIDTH 5 0
BBX 4 12 1 0
BITMAP
A9
A9
54
A9
00
50
A5
A5
65
65
98
A4
ENDCHAR
STARTCHAR less
ENCODING 60
SWIDTH 670 0
DWIDTH 13 0
BBX 13 15 0 1
BITMAP
00000040
00001A40
0001A540
00696940
069A5A40
65A5A540
29696900
16964000
65A59000
2A5A6900
65A5A540
06969640
00196900
0001A540
00000640
ENDCHAR
STARTCHAR equal
ENCODING 61
SWIDTH 473 0
DWIDTH 9 0
BBX 8 10 1 2
BITMAP
AAA9
AAA9
5555
AAA9
0000
5555
5555
AAA9
AAA9
5554
ENDCHAR
STARTCHAR greater
ENCODING 62
SWIDTH 670 0
DWIDTH 13 0
BBX 12 15 1 1
BITMAP
400000
A40000
969000
596900
A5A5A4
96964A
296869
019A59
019695
696969
5A5A5A
A5A690
696900
5A4000
A40000
ENDCHAR
STARTCHAR question
ENCODING 63
SWIDTH 693 0
DWIDTH 14 0
BBX 14 17 0 0
BITMAP
01AA9000
29555800
5A55A600
05AA9980
016A6680
00419650
00019650
09656680
096A9980
0965A600
09655800
09665000
09600000
0AA00000
05500000
0AA00000
0AA00000
ENDCHAR
STARTCHAR at
ENCODING 64
SWIDTH 1076 0
DWIDTH 22 0
BBX 21 20 0 -2
BITMAP
00005A500000
001A55690000
00A6AAA58000
02596A966400
099640699800
09646A426600
265295649A40
25866A996980
59499A662580
595A60962580
595650962680
594A6A962580
2589A5966580
265295595980
19645A25A600
099A404AA800
02696A400000
00A6AA800000
001A55500000
000055400000
ENDCHAR
STARTCHAR A
ENCODING 65
SWIDTH 936 0
DWIDTH 19 0
BBX 19 16 0 0
BITMAP
000A994000
000A698000
0015A68000
0025965000
0029996000
009A69A400
0096669800
01659A6800
0269896500
029A459600
0996569A40
0965566980
1659A96680
269AAA9650
29A4005960
59600029A4
ENDCHAR
STARTCHAR B
ENCODING 66
SWIDTH 862 0
DWIDTH 17 0
BBX 16 17 1 0
BITMAP
55554000
AAAAAA40
AAAAA960
A1555598
A6555A68
A5AAA9A5
A58005A6
A5AAA9A5
A5955658
A5955668
A5AAA9A5
A58005A6
A5AAA965
A59AAA68
A5955698
A59AA9A0
A5AAAA40
ENDCHAR
STARTCHAR C
ENCODING 67
SWIDTH 852 0
DWIDTH 17 0
BBX 17 18 0 -1
BITMAP
0006AA4000
006555A000
025A569900
0996AA6640
1A69A59900
269A066000
2994004000
5960000000
5A60000000
5A60000000
5960000000
2994008000
2666566000
0999559940
0666A96600
019A5A9900
006955A000
0005A90000
ENDCHAR
STARTCHAR D
ENCODING 68
SWIDTH 886 0
DWIDTH 18 0
BBX 16 17 1 0
BITMAP
55554000
AAAAAA00
AAAAA590
A1555664
A6555998
A5AAA665
A58009A6
A5800696
A580029A
A580029A
A5800596
A58009A6
A5AAA665
A6AAA998
A5555660
9AAAA580
EAAAA900
ENDCHAR
STARTCHAR E
ENCODING 69
SWIDTH 706 0
DWIDTH 14 0
BBX 13 17 1 0
BITMAP
00155500
A5AAAA00
A5AAAA40
A5955500
A5955500
A5800000
A5800000
A5AA4000
A5954000
A5954000
A5AA4000
A5800000
A5800000
A5AAAA00
A5955500
A5AAAA40
A5AAAA40
ENDCHAR
STARTCHAR F
ENCODING 70
SWIDTH 683 0
DWIDTH 14 0
BBX 12 17 1 0
BITMAP
001554
A5AAA9
A5AAAA
A59555
A59555
A58000
A58000
A58000
A5AAA9
A5AAA9
A59555
A59555
A58000
A58000
A58000
A58000
A58000
ENDCHAR
STARTCHAR G
ENCODING 71
SWIDTH 908 0
DWIDTH 18 0
BBX 18 18 0 -1
BITMAP
0006AA4000
006555A000
025A569900
0996AA6640
1A69A59900
269A066000
2994004000
5960000000
5A60004500
5A60009A50
5960009A50
29A4009A50
269A56DA50
1969559A50
0966AA9A50
029A5ADA50
0069559A50
0006A94000
ENDCHAR
STARTCHAR H
ENCODING 72
SWIDTH 901 0
DWIDTH 18 0
BBX 16 16 1 0
BITMAP
A580025A
A580025A
A580025A
A580025A
A580025A
A580025A
A5AAAA5A
A595565A
A595565A
A5AAAA5A
A580025A
A580025A
A580025A
A580025A
A580025A
A580025A
ENDCHAR
STARTCHAR I
ENCODING 73
SWIDTH 338 0
DWIDTH 7 0
BBX 5 16 1 0
BITMAP
A580
A580
A580
A580
A580
A580
A580
A580
A580
A580
A580
A580
A580
A580
A580
A580
ENDCHAR
STARTCHAR J
ENCODING 74
SWIDTH 434 0
DWIDTH 9 0
BBX 8 17 0 -1
BITMAP
0296
0296
0296
0296
0296
0296
0296
0296
0296
0296
0296
1996
5665
6998
5A64
1590
6900
ENDCHAR
STARTCHAR K
ENCODING 75
SWIDTH 815 0
DWIDTH 16 0
BBX 15 16 1 0
BITMAP
A5802598
A5805960
A5809660
A5826580
A5825940
A5899600
A5896500
A5A65800
A5965800
A5896600
A5859600
A5825980
A5816680
A5809660
A58059A0
A5802598
ENDCHAR
STARTCHAR L
ENCODING 76
SWIDTH 604 0
DWIDTH 12 0
BBX 11 16 1 0
BITMAP
A58000
A58000
A58000
A58000
A58000
A58000
A58000
A58000
A58000
A58000
A58000
A58000
A5AAA4
A59550
A5AAA4
A5AAA4
ENDCHAR
STARTCHAR M
ENCODING 77
SWIDTH 920 0
DWIDTH 18 0
BBX 17 16 1 0
BITMAP
DA40009A40
A980016640
A690025940
9A60059940
A994096940
A298265940
A665259940
A596596940
A599562940
A565966940
A596696940
A589656940
A580016940
A580016940
A580016940
A580016940
ENDCHAR
STARTCHAR N
ENCODING 78
SWIDTH 877 0
DWIDTH 18 0
BBX 16 16 1 0
BITMAP
D96005A6
A59805A6
966505A6
99A605A6
A69985A6
A26695A6
A59665A6
A55995A6
A5A658A6
A59966A6
A5899A66
A5826996
A581A666
A5809966
A580259A
A580166A
ENDCHAR
STARTCHAR O
ENCODING 79
SWIDTH 933 0
DWIDTH 19 0
BBX 18 18 0 -1
BITMAP
0006AA4000
006555A400
025A569900
0996AA6640
1A69A59980
269A066650
2994009960
59600029A0
5A600025A0
5A600025A0
59600029A0
2994009A60
2666566650
0999559980
0666A96600
019A5A9900
006955A000
0005A90000
ENDCHAR
STARTCHAR P
ENCODING 80
SWIDTH 850 0
DWIDTH 17 0
BBX 16 17 1 0
BITMAP
55554000
AAAAAA40
AAAAA990
A1555664
A6555998
A5AAA669
A5800965
A5800965
A59AA668
A59AA998
A5955664
A5955590
A59AA900
A5800000
A5800000
A5800000
A5800000
ENDCHAR
STARTCHAR Q
ENCODING 81
SWIDTH 937 0
DWIDTH 19 0
BBX 18 19 0 -2
BITMAP
0006AA4000
006555A400
025A569900
0996AA6640
1A69A59980
269A066650
2994009960
59600029A0
5A600025A0
5A600125A0
59600969A0
2994259A60
2666566650
0999559980
0666A96600
019A5A9900
006955A640
0005A95940
0000002500
ENDCHAR
STARTCHAR R
ENCODING 82
SWIDTH 843 0
DWIDTH 17 0
BBX 16 17 1 0
BITMAP
55554000
AAAAAA40
AAAAA990
A1555664
A6555998
A5AAA668
A5800965
A5956969
A5955658
A5AAA598
A5AAAA60
A5955680
A596B980
A5809680
A5809A50
A5806960
A58025A0
ENDCHAR
STARTCHAR S
ENCODING 83
SWIDTH 682 0
DWIDTH 14 0
BBX 13 18 0 -1
BITMAP
006AA400
06555640
19956980
266AA500
599A9400
5A601000
596A5000
29956800
265AA600
19AA9940
06956580
0015A680
0055A680
01556580
15AA9940
5696A600
19556800
016A5000
ENDCHAR
STARTCHAR T
ENCODING 84
SWIDTH 591 0
DWIDTH 12 0
BBX 11 17 0 0
BITMAP
155554
6AAAA8
6AAAA8
155554
16AA94
026940
026940
026940
026940
026940
026940
026940
026940
026940
026940
026940
026940
ENDCHAR
STARTCHAR U
ENCODING 85
SWIDTH 905 0
DWIDTH 18 0
BBX 18 17 0 -1
BITMAP
6960009650
6960009650
6960009650
6960009650
6960009650
6960009650
6960009650
6960009650
6960009650
2960009690
29A401A680
269A5A6980
1A69569A40
0996A96600
025A5A5800
0065559000
0006A90000
ENDCHAR
STARTCHAR V
ENCODING 86
SWIDTH 940 0
DWIDTH 19 0
BBX 19 16 0 0
BITMAP
59600029A4
2594009960
2698009650
1A68016580
0966026980
0596029A40
0259459600
0269896500
01A6966800
0096269800
005969A400
0029996000
0026965000
0019A68000
000A698000
00069A4000
ENDCHAR
STARTCHAR W
ENCODING 87
SWIDTH 1161 0
DWIDTH 23 0
BBX 23 16 0 0
BITMAP
596069741698
29605A682594
25A4965829A0
2694A6A85960
165965A59A60
0A6A69A69650
096659D6A680
09A29A996580
0599976A6980
0299A7675940
025965A69A00
026A68999600
0156589DA500
00A694596900
00A5A43A5800
006960269800
ENDCHAR
STARTCHAR X
ENCODING 88
SWIDTH 876 0
DWIDTH 18 0
BBX 17 16 0 0
BITMAP
6998059940
2669096600
0966265800
0599599400
02659A6000
0096669000
0096998000
0019A60000
0016698000
0025999000
0099666000
0166599400
0259A65800
099A496600
1A66059940
2698026980
ENDCHAR
STARTCHAR Y
ENCODING 89
SWIDTH 789 0
DWIDTH 16 0
BBX 15 16 0 0
BITMAP
5A600968
25A01658
169825A4
09685960
05A69650
0299A580
016A5940
00A69600
0099A500
002A5800
00269400
00269400
00269400
00269400
00269400
00269400
ENDCHAR
STARTCHAR Z
ENCODING 90
SWIDTH 854 0
DWIDTH 17 0
BBX 17 17 0 0
BITMAP
1555555500
2AAAAAAB40
2AAAAA5900
155554A600
1555566540
2AAA299900
0001996640
000A665800
0066999000
0299A60000
19A6640000
6669900000
29992AAA40
1A65AAAA00
2645555500
196AAAAA00
7AAAAAAA40
ENDCHAR
STARTCHAR bracketleft
ENCODING 91
SWIDTH 320 0
DWIDTH 6 0
BBX 5 19 1 -2
BITMAP
AA80
9540
A540
A680
A500
A500
A500
A500
A500
A500
A500
A500
A500
A500
A500
A680
AA80
9540
5540
ENDCHAR
STARTCHAR backslash
ENCODING 92
SWIDTH 448 0
DWIDTH 9 0
BBX 9 18 0 -2
BITMAP
594000
294000
258000
268000
165000
0A5000
096000
09A000
059400
029400
025800
026800
016500
00A500
009600
009A00
005940
001940
ENDCHAR
STARTCHAR bracketright
ENCODING 93
SWIDTH 319 0
DWIDTH 6 0
BBX 6 19 0 -2
BITMAP
6A90
5560
1660
6A60
0A60
0A60
0A60
0A60
0A60
0A60
0A60
0A60
0A60
0A60
0A60
6660
6B60
1560
5550
ENDCHAR
STARTCHAR asciicircum
ENCODING 94
SWIDTH 475 0
DWIDTH 10 0
BBX 9 8 0 6
BITMAP
02A000
029800
055800
096500
0A2600
261A00
250940
540540
ENDCHAR
STARTCHAR underscore
ENCODING 95
SWIDTH 511 0
DWIDTH 10 0
BBX 9 4 1 -4
BITMAP
AAAA40
AAAA40
555500
AAAA40
ENDCHAR
STARTCHAR grave
ENCODING 96
SWIDTH 472 0
DWIDTH 9 0
BBX 8 5 1 14
BITMAP
2400
9640
2964
0295
0014
ENDCHAR
STARTCHAR a
ENCODING 97
SWIDTH 832 0
DWIDTH 17 0
BBX 16 16 0 -1
BITMAP
00055000
00A55A40
065AA990
09969664
26655998
299AA665
596009A6
5A600596
5A600296
59600296
25996696
26655696
09969696
025AA696
00655696
00055000
ENDCHAR
STARTCHAR b
ENCODING 98
SWIDTH 720 0
DWIDTH 14 0
BBX 13 14 1 0
BITMAP
EAAAA400
9AAA9600
A1555940
A655A880
A5002580
A5AA9880
A555A600
A5556600
A5AA9880
A5002580
A5AAA880
A5556640
A5AA5A00
A5AAA400
ENDCHAR
STARTCHAR c
ENCODING 99
SWIDTH 736 0
DWIDTH 15 0
BBX 14 16 0 -1
BITMAP
001AA400
00A55640
06696960
099AA590
26659640
29995800
59600000
5A600000
5A600000
59600000
29996900
26655640
099AA590
06696960
00A55640
0006A400
ENDCHAR
STARTCHAR d
ENCODING 100
SWIDTH 833 0
DWIDTH 17 0
BBX 15 14 1 0
BITMAP
EAAAA800
9AAA9640
A1555990
A655A660
A5AA9994
A5802658
A5800A58
A5801A58
A5802658
A5AA9994
A6AAA660
A5555990
9AAA9640
EAAAA800
ENDCHAR
STARTCHAR e
ENCODING 101
SWIDTH 666 0
DWIDTH 13 0
BBX 12 14 1 0
BITMAP
A5AAA9
A5AAA9
A59554
A59555
A58000
A5AAA8
A59554
A59554
A5AAA8
A58000
A5AAA9
A59554
A5AAA9
A5AAA9
ENDCHAR
STARTCHAR f
ENCODING 102
SWIDTH 625 0
DWIDTH 13 0
BBX 11 14 1 0
BITMAP
A5AAA8
A5AAA8
A59554
A59554
A58000
A59550
A59550
A5AAA4
A5AAA4
A58000
A58000
A58000
A58000
A58000
ENDCHAR
STARTCHAR g
ENCODING 103
SWIDTH 827 0
DWIDTH 17 0
BBX 16 16 0 -1
BITMAP
001AA400
00A55640
06696960
099AA590
26659640
29995800
59600000
5A600000
5A600696
59600696
29995A96
26655696
099AAA96
06696A96
00A55696
0006A400
ENDCHAR
STARTCHAR h
ENCODING 104
SWIDTH 830 0
DWIDTH 17 0
BBX 15 14 1 0
BITMAP
A5801658
A5801658
A5801658
A5801658
A5801658
A5AAA658
A5AAA658
A5955658
A5956658
A5801658
A5801658
A5801658
A5801658
A5801658
ENDCHAR
STARTCHAR i
ENCODING 105
SWIDTH 337 0
DWIDTH 7 0
BBX 5 14 1 0
BITMAP
A580
A580
A580
A580
A580
A580
A580
A580
A580
A580
A580
A580
A580
A580
ENDCHAR
STARTCHAR j
ENCODING 106
SWIDTH 393 0
DWIDTH 8 0
BBX 7 16 0 -2
BITMAP
0A68
0A68
0A68
0A68
0A68
0A68
0A68
0A68
0A68
0A68
1A58
6698
6994
1660
6580
6900
ENDCHAR
STARTCHAR k
ENCODING 107
SWIDTH 801 0
DWIDTH 16 0
BBX 15 14 1 0
BITMAP
A5802994
A5809A60
A581A690
A5826980
A5859A40
A5896600
A5965800
A5965800
A5896600
A5859A00
A5826980
A581A690
A5809A60
A5802994
ENDCHAR
STARTCHAR l
ENCODING 108
SWIDTH 583 0
DWIDTH 12 0
BBX 10 14 1 0
BITMAP
A58000
A58000
A58000
A58000
A58000
A58000
A58000
A58000
A58000
A58000
A5AAA0
A59550
A5AAA0
A5AAA0
ENDCHAR
STARTCHAR m
ENCODING 109
SWIDTH 1167 0
DWIDTH 23 0
BBX 23 15 0 0
BITMAP
006A901AA400
02955A955640
09A569A96990
266AA66AA660
2596597659A4
296469A96694
696025A01698
696025A01698
696025A01698
696025A01698
696025A01698
696025A01698
696025A01698
696025A01698
696025A01698
ENDCHAR
STARTCHAR n
ENCODING 110
SWIDTH 787 0
DWIDTH 16 0
BBX 14 14 1 0
BITMAP
D9600960
A9980960
A6690960
99660960
A5994960
A2698960
A5A65960
A5996960
A5259960
A5266960
A509A660
A5059960
A50269A0
A501A660
ENDCHAR
STARTCHAR o
ENCODING 111
SWIDTH 833 0
DWIDTH 17 0
BBX 16 16 0 -1
BITMAP
001AA400
00A55640
06696960
099AA598
26659668
29995966
59600596
5A60029A
5A60029A
59600596
29996966
26655658
099AA594
06696960
00A55640
0006A400
ENDCHAR
STARTCHAR p
ENCODING 112
SWIDTH 781 0
DWIDTH 16 0
BBX 14 14 1 0
BITMAP
EAAAA800
9AAA9640
A1555980
A6556660
A5AA9960
A58029A0
A59A9960
A59AA660
A5955980
A5955640
A59AA400
A5800000
A5800000
A5800000
ENDCHAR
STARTCHAR q
ENCODING 113
SWIDTH 788 0
DWIDTH 16 0
BBX 15 16 0 -2
BITMAP
00AAAAA8
065AAA98
19955558
26695658
699AAA58
5A600A58
5A500A58
59655A58
29969A58
266A9A58
09A55A58
02955A58
006A9A58
00000A58
00000A58
00000A58
ENDCHAR
STARTCHAR r
ENCODING 114
SWIDTH 831 0
DWIDTH 17 0
BBX 15 14 1 0
BITMAP
EAAAAA00
9AAAA990
A1555660
A6555998
A5AAA658
A5801A68
A59AA658
A5AAA998
A5955A60
A5955590
A5AAAE40
A5816980
A580A680
A5809A50
ENDCHAR
STARTCHAR s
ENCODING 115
SWIDTH 683 0
DWIDTH 14 0
BBX 13 16 0 -1
BITMAP
00154000
06956900
19AAA580
265A5600
59905800
5A400000
69AAA400
26955A00
09556540
01AA9980
00002680
02556580
19595980
65AA9600
0695A800
00154000
ENDCHAR
STARTCHAR t
ENCODING 116
SWIDTH 588 0
DWIDTH 12 0
BBX 11 14 0 0
BITMAP
6AAAA8
6AAAA8
155554
56AA94
026940
026940
026940
026940
026940
026940
026940
026940
026940
026940
ENDCHAR
STARTCHAR u
ENCODING 117
SWIDTH 795 0
DWIDTH 16 0
BBX 15 15 0 -1
BITMAP
69600968
69600968
69600968
69600968
69600968
69600968
69600968
69600968
29600A68
25996658
26655994
099AA660
06696990
01A55A00
001AA400
ENDCHAR
STARTCHAR v
ENCODING 118
SWIDTH 855 0
DWIDTH 17 0
BBX 17 14 0 0
BITMAP
5960026980
2994029A00
269809A600
1A68096500
0965165800
0596269800
029A69A400
0269996000
0165965000
0095658000
005A698000
00229A4000
0029960000
001D650000
ENDCHAR
STARTCHAR w
ENCODING 119
SWIDTH 1129 0
DWIDTH 23 0
BBX 22 15 0 -1
BITMAP
696069606960
696069606960
696069606960
696069606960
696069606960
696069606960
696069606960
696069606960
696059605960
29AA9A7A9A60
26A566656650
169659DA5980
096AA76AA640
01A569A56800
001540154000
ENDCHAR
STARTCHAR x
ENCODING 120
SWIDTH 790 0
DWIDTH 16 0
BBX 15 14 0 0
BITMAP
69982698
26659994
09A5A660
06966590
02699980
00996600
00665900
00599900
00966600
02669980
0599A590
09A65660
26659994
69982658
ENDCHAR
STARTCHAR y
ENCODING 121
SWIDTH 733 0
DWIDTH 15 0
BBX 14 14 0 0
BITMAP
5A6025A0
25A45960
16589680
09656580
05965940
02569600
01696500
009A5800
00659400
0029A000
0029A000
0029A000
0029A000
0029A000
ENDCHAR
STARTCHAR z
ENCODING 122
SWIDTH 714 0
DWIDTH 14 0
BBX 14 14 0 0
BITMAP
2AA99950
2AAA6650
15565980
15599A40
00166600
00269800
00999400
01A66000
02658000
09998000
09666A90
26695540
5999AA90
5A66AA90
ENDCHAR
STARTCHAR braceleft
ENCODING 123
SWIDTH 396 0
DWIDTH 8 0
BBX 8 22 0 -5
BITMAP
00A9
0255
0994
0A69
1650
1650
1650
1650
1650
6580
1640
5980
6680
1650
1650
1650
1650
0A64
0994
0669
01A5
0004
ENDCHAR
STARTCHAR bar
ENCODING 124
SWIDTH 266 0
DWIDTH 5 0
BBX 4 18 1 -2
BITMAP
A5
A5
A5
A5
A5
A5
A5
A5
A5
A5
A5
A5
A5
A5
A5
A5
A5
A5
ENDCHAR
STARTCHAR braceright
ENCODING 125
SWIDTH 396 0
DWIDTH 8 0
BBX 8 22 0 -5
BITMAP
6900
5580
1660
69A0
05A0
05A4
05A4
05A4
0599
0264
0199
0269
0590
05A4
05A4
05A4
05A4
19A0
5660
6990
5A40
1000
ENDCHAR
STARTCHAR asciitilde
ENCODING 126
SWIDTH 665 0
DWIDTH 13 0
BBX 13 4 0 11
BITMAP
0AAA8540
25555980
29555600
58AAA900
ENDCHAR
STARTCHAR uni00A0
ENCODING 160
SWIDTH 108 0
DWIDTH 2 0
BBX 1 1 0 0
BITMAP
00
ENDCHAR
STARTCHAR exclamdown
ENCODING 161
SWIDTH 336 0
DWIDTH 7 0
BBX 5 17 1 -1
BITMAP
A580
A580
A580
A580
A580
A580
A580
A580
A580
A580
A580
6580
0000
AA80
5540
5540
AA80
ENDCHAR
STARTCHAR cent
ENCODING 162
SWIDTH 708 0
DWIDTH 14 0
BBX 14 20 0 -2
BITMAP
00088000
00088000
00015000
00A55900
066AA580
09969650
26655940
299AA500
59601000
5A600000
5A600000
29A42400
26969900
1A5AA640
09656990
01955640
002AA400
00084000
00088000
00044000
ENDCHAR
STARTCHAR sterling
ENCODING 163
SWIDTH 689 0
DWIDTH 14 0
BBX 13 17 0 0
BITMAP
006AA400
06555640
19956940
266AA500
299A9400
69601000
69600000
69655500
69655400
696AA900
696AA900
69600000
69600000
697AA900
69655400
697AA900
697AA900
ENDCHAR
STARTCHAR currency
ENCODING 164
SWIDTH 715 0
DWIDTH 14 0
BBX 14 15 0 0
BITMAP
02000900
19801A50
265AA690
19956980
0669A600
09801600
0A400940
0A000940
0A000940
09801A00
05A46600
1A5A5940
266AA590
59801650
06000940
ENDCHAR
STARTCHAR yen
ENCODING 165
SWIDTH 796 0
DWIDTH 16 0
BBX 16 16 0 0
BITMAP
59600969
25A41A58
16582594
09682960
05A69650
0259A580
01666940
00A69600
0059A500
002A6800
00269800
06A69A90
06A69A90
01669540
00169400
00169400
ENDCHAR
STARTCHAR brokenbar
ENCODING 166
SWIDTH 263 0
DWIDTH 5 0
BBX 4 18 1 -2
BITMAP
A5
A5
A5
A5
A5
A5
A5
55
00
00
55
A5
A5
A5
A5
A5
A5
A5
ENDCHAR
STARTCHAR section
ENCODING 167
SWIDTH 108 0
DWIDTH 2 0
BBX 1 1 0 0
BITMAP
00
ENDCHAR
STARTCHAR dieresis
ENCODING 168
SWIDTH 556 0
DWIDTH 11 0
BBX 11 2 0 15
BITMAP
594594
694694
ENDCHAR
STARTCHAR copyright
ENCODING 169
SWIDTH 869 0
DWIDTH 17 0
BBX 17 17 0 0
BITMAP
001AE90000
00B916D000
0380007400
0A0BFD0D00
1838068600
34A0004340
71C0000280
6180000180
6280000180
7180000180
30D0000240
2874018300
0D1EAE0A00
0741942800
01E001A000
002EAE4000
0001500000
ENDCHAR
STARTCHAR ordfeminine
ENCODING 170
SWIDTH 833 0
DWIDTH 17 0
BBX 16 16 0 -1
BITMAP
00055000
00A55A40
025AA9A0
099696A4
16655958
259AA565
69640996
59600296
5960029A
6960029A
2599669A
1665569A
0996A29A
025AA69A
0069569A
00055000
ENDCHAR
STARTCHAR guillemotleft
ENCODING 171
SWIDTH 911 0
DWIDTH 18 0
BBX 18 10 0 2
BITMAP
0006400290
01A5406950
19690A5A40
169645A590
65A4196900
1A5A0A9680
29A5596950
069641A590
001A000640
0001400050
ENDCHAR
STARTCHAR logicalnot
ENCODING 172
SWIDTH 718 0
DWIDTH 14 0
BBX 13 7 1 4
BITMAP
AAAA9440
55556980
AAAAA980
AAAAA980
00002980
00002980
00002540
ENDCHAR
STARTCHAR registered
ENCODING 174
SWIDTH 869 0
DWIDTH 17 0
BBX 17 17 0 0
BITMAP
001AE90000
00B916D000
0380007400
0A05500D00
182FFE0600
3428034340
7028024280
6028074180
602FFD0180
7028280180
30281C0240
28280A0300
0D18060A00
0740002800
01E001A000
002EAE4000
0001500000
ENDCHAR
STARTCHAR degree
ENCODING 176
SWIDTH 330 0
DWIDTH 7 0
BBX 6 6 0 15
BITMAP
0A40
2650
54A0
58A0
2550
0540
ENDCHAR
STARTCHAR plusminus
ENCODING 177
SWIDTH 598 0
DWIDTH 12 0
BBX 12 13 0 0
BITMAP
015540
016980
016980
6A69E9
166994
166994
6A69E9
016980
016980
011440
1AAAA8
155554
155554
ENDCHAR
STARTCHAR uni00B2
ENCODING 178
SWIDTH 435 0
DWIDTH 9 0
BBX 8 13 0 3
BITMAP
2AA9
1AA6
100A
0016
0029
0098
0260
0690
0940
2600
6AA9
1554
6AA9
ENDCHAR
STARTCHAR uni00B3
ENCODING 179
SWIDTH 515 0
DWIDTH 10 0
BBX 10 14 0 2
BITMAP
6AA800
1AA640
155980
256680
001680
06A980
029680
015A50
06AA60
040960
1AA650
2AA980
255A00
155400
ENDCHAR
STARTCHAR acute
ENCODING 180
SWIDTH 472 0
DWIDTH 9 0
BBX 8 5 1 14
BITMAP
0024
0299
29A4
9A40
2400
ENDCHAR
STARTCHAR uni00B5
ENCODING 181
SWIDTH 802 0
DWIDTH 16 0
BBX 15 16 1 -2
BITMAP
A5802594
A5802594
A5802594
A5802594
A5802594
A5802594
A5802594
A5802594
A58025A0
A59599A0
A5956660
A5AA9980
A595A640
A5955900
A59A9000
A5800000
ENDCHAR
STARTCHAR paragraph
ENCODING 182
SWIDTH 676 0
DWIDTH 14 0
BBX 13 16 0 -2
BITMAP
01AAAA80
0A6AA980
16955980
25A56980
596A6980
59616980
699A6980
266A6980
19966980
0A566980
01AA6980
00016980
00016980
00016980
00016980
0001AA80
ENDCHAR
STARTCHAR periodcentered
ENCODING 183
SWIDTH 260 0
DWIDTH 5 0
BBX 4 5 1 7
BITMAP
54
54
A9
54
54
ENDCHAR
STARTCHAR cedilla
ENCODING 184
SWIDTH 321 0
DWIDTH 6 0
BBX 5 7 1 -8
BITMAP
0940
6540
9A40
A000
9A40
9500
1640
ENDCHAR
STARTCHAR uni00B9
ENCODING 185
SWIDTH 359 0
DWIDTH 7 0
BBX 7 12 0 5
BITMAP
1550
6AA0
6AA4
0594
0594
0594
0594
0594
0594
0594
0594
0594
ENDCHAR
STARTCHAR ordmasculine
ENCODING 186
SWIDTH 835 0
DWIDTH 17 0
BBX 16 16 0 -1
BITMAP
001AA400
00A55680
02695960
099AA598
26659669
259959A6
69600696
5960025A
5960025A
69600696
259969A6
16655669
0996A598
02696960
00A55640
0006A400
ENDCHAR
STARTCHAR guillemotright
ENCODING 187
SWIDTH 912 0
DWIDTH 18 0
BBX 17 10 1 2
BITMAP
A400290000
5A40569000
69691A5A00
A5A5296540
0A59069640
6469191A00
5A59169640
969065A400
69001A0000
4000100000
ENDCHAR
STARTCHAR onequarter
ENCODING 188
SWIDTH 1236 0
DWIDTH 25 0
BBX 25 19 0 -2
BITMAP
15500000000000
6AA00258000000
6AA00294000000
05940594000000
059409A0096000
05940960166000
05940A50258000
05941650598000
059426809A0000
05942581662900
05942942692900
05945942AAAA40
00009A01555500
00009601555500
0000A502AAAA40
00016500002400
00026800002900
00025800000000
00029400000000
ENDCHAR
STARTCHAR onehalf
ENCODING 189
SWIDTH 1154 0
DWIDTH 23 0
BBX 23 19 0 -2
BITMAP
155000000000
6AA002580000
6AA002940000
059405940000
059409A16A40
059409615560
05940A51A594
059416500094
059426800160
059425800290
059429400980
059459402600
00009A006900
000096009400
0000A5016000
00016502AAA0
00026802AAA0
000258000000
000294000000
ENDCHAR
STARTCHAR threequarters
ENCODING 190
SWIDTH 1345 0
DWIDTH 27 0
BBX 27 18 0 -2
BITMAP
6AA8000A600000
1AA60016500000
15598026800000
25668025809A00
0016802981A600
06A98059426900
0696809A069800
015A909609A400
06AA60A61A6250
00196165265250
1AA652682AAAA4
2AA98258155550
255A0298155554
155405942AAAA4
000009A0000250
00000960000250
00000A60000000
00001650000000
ENDCHAR
STARTCHAR questiondown
ENCODING 191
SWIDTH 693 0
DWIDTH 14 0
BBX 14 17 0 0
BITMAP
01AA9000
29555800
5A55A600
05AA9980
016A6680
00419650
00019650
09656680
096A9980
0965A600
09655800
09665000
09600000
0AA00000
05500000
0AA00000
0AA00000
ENDCHAR
STARTCHAR Agrave
ENCODING 192
SWIDTH 936 0
DWIDTH 19 0
BBX 19 23 0 0
BITMAP
0090000000
0259000000
0065900000
0006580000
0000500000
0000000000
0000000000
000A994000
000A698000
0015A68000
0025965000
0029996000
009A69A400
0096669800
01659A6800
0269896500
029A459600
0996569A40
0965566980
1659A96680
269AAA9650
29A4005960
59600029A4
ENDCHAR
STARTCHAR Aacute
ENCODING 193
SWIDTH 936 0
DWIDTH 19 0
BBX 19 23 0 0
BITMAP
0000002400
0000029900
000029A400
00009A4000
0000240000
0000000000
0000000000
000A994000
000A698000
0015A68000
0025965000
0029996000
009A69A400
0096669800
01659A6800
0269896500
029A459600
0996569A40
0965566980
1659A96680
269AAA9650
29A4005960
59600029A4
ENDCHAR
STARTCHAR Acircumflex
ENCODING 194
SWIDTH 936 0
DWIDTH 19 0
BBX 19 23 0 0
BITMAP
0000980000
0001A80000
0002250000
0002960000
00058A4000
0000000000
0000000000
000A994000
000A698000
0015A68000
0025965000
0029996000
009A69A400
0096669800
01659A6800
0269896500
029A459600
0996569A40
0965566980
1659A96680
269AAA9650
29A4005960
59600029A4
ENDCHAR
STARTCHAR Atilde
ENCODING 195
SWIDTH 936 0
DWIDTH 19 0
BBX 19 22 0 0
BITMAP
006AAA2500
0095556900
0165555800
0152AAA000
0000000000
0000000000
000A994000
000A698000
0015A68000
0025965000
0029996000
009A69A400
0096669800
01659A6800
0269896500
029A459600
0996569A40
0965566980
1659A96680
269AAA9650
29A4005960
59600029A4
ENDCHAR
STARTCHAR Adieresis
ENCODING 196
SWIDTH 936 0
DWIDTH 19 0
BBX 19 20 0 0
BITMAP
005A05A000
005A05A000
0000000000
0000000000
000A994000
000A698000
0015A68000
0025965000
0029996000
009A69A400
0096669800
01659A6800
0269896500
029A459600
0996569A40
0965566980
1659A96680
269AAA9650
29A4005960
59600029A4
ENDCHAR
STARTCHAR Aring
ENCODING 197
SWIDTH 936 0
DWIDTH 19 0
BBX 19 22 0 0
BITMAP
0000640000
0002660000
00058A0000
00068A0000
0002550000
0000640000
000A994000
000A698000
0015A68000
0025965000
0029996000
009A69A400
0096669800
01659A6800
0269896500
029A459600
0996569A40
0965566980
1659A96680
269AAA9650
29A4005960
59600029A4
ENDCHAR
STARTCHAR AE
ENCODING 198
SWIDTH 1198 0
DWIDTH 24 0
BBX 23 17 0 0
BITMAP
000000555554
000A59AAAAA8
000A69EAAAA8
0015A6955554
002596655554
002999600000
009969A40000
0096669EAAA0
01659A695550
026989665550
029A4597AAA0
0596569A0000
096556698000
1659A966AAA8
269AAA966554
29A400597AA8
59600029AAA8
ENDCHAR
STARTCHAR Ccedilla
ENCODING 199
SWIDTH 852 0
DWIDTH 17 0
BBX 17 24 0 -7
BITMAP
0006AA4000
006555A000
025A569900
0996AA6640
1A69A59900
269A066000
2994004000
5960000000
5A60000000
5A60000000
5960000000
2994008000
2666566000
0999559940
0666A96600
019A5A9900
006955A000
0006FD0000
0006540000
0009A40000
000A000000
0009A40000
0009500000
0001640000
ENDCHAR
STARTCHAR Egrave
ENCODING 200
SWIDTH 706 0
DWIDTH 14 0
BBX 13 23 1 0
BITMAP
24000000
96400000
29640000
01950000
00140000
00000000
00155500
A5AAAA00
A5AAAA40
A5955500
A5955500
A5800000
A5800000
A5AA4000
A5954000
A5954000
A5AA4000
A5800000
A5800000
A5AAAA00
A5955500
A5AAAA40
A5AAAA40
ENDCHAR
STARTCHAR Eacute
ENCODING 201
SWIDTH 706 0
DWIDTH 14 0
BBX 13 23 1 0
BITMAP
00001900
0001A640
001A6800
00668000
00080000
00000000
00155500
A5AAAA00
A5AAAA40
A5955500
A5955500
A5800000
A5800000
A5AA4000
A5954000
A5954000
A5AA4000
A5800000
A5800000
A5AAAA00
A5955500
A5AAAA40
A5AAAA40
ENDCHAR
STARTCHAR Ecircumflex
ENCODING 202
SWIDTH 706 0
DWIDTH 14 0
BBX 13 23 1 0
BITMAP
00250000
00A60000
008A4000
01698000
02558000
00000000
00155500
A5AAAA00
A5AAAA40
A5955500
A5955500
A5800000
A5800000
A5AA4000
A5954000
A5954000
A5AA4000
A5800000
A5800000
A5AAAA00
A5955500
A5AAAA40
A5AAAA40
ENDCHAR
STARTCHAR Edieresis
ENCODING 203
SWIDTH 706 0
DWIDTH 14 0
BBX 13 20 1 0
BITMAP
25825800
25825800
00000000
00155500
A5AAAA00
A5AAAA40
A5955500
A5955500
A5800000
A5800000
A5AA4000
A5954000
A5954000
A5AA4000
A5800000
A5800000
A5AAAA00
A5955500
A5AAAA40
A5AAAA40
ENDCHAR
STARTCHAR Igrave
ENCODING 204
SWIDTH 338 0
DWIDTH 7 0
BBX 9 23 -3 0
BITMAP
240000
964000
196400
019600
001400
000000
000000
00A580
00A580
00A580
00A580
00A580
00A580
00A580
00A580
00A580
00A580
00A580
00A580
00A580
00A580
00A580
00A580
ENDCHAR
STARTCHAR Iacute
ENCODING 205
SWIDTH 338 0
DWIDTH 7 0
BBX 9 23 1 0
BITMAP
000900
00A640
0A6900
269000
090000
000000
000000
A58000
A58000
A58000
A58000
A58000
A58000
A58000
A58000
A58000
A58000
A58000
A58000
A58000
A58000
A58000
A58000
ENDCHAR
STARTCHAR Icircumflex
ENCODING 206
SWIDTH 338 0
DWIDTH 7 0
BBX 7 23 0 0
BITMAP
0980
1A80
2250
2960
58A4
0000
0000
2960
2960
2960
2960
2960
2960
2960
2960
2960
2960
2960
2960
2960
2960
2960
2960
ENDCHAR
STARTCHAR Idieresis
ENCODING 207
SWIDTH 338 0
DWIDTH 7 0
BBX 10 20 -2 0
BITMAP
5A05A0
5A05A0
000000
000000
029600
029600
029600
029600
029600
029600
029600
029600
029600
029600
029600
029600
029600
029600
029600
029600
ENDCHAR
STARTCHAR Eth
ENCODING 208
SWIDTH 905 0
DWIDTH 18 0
BBX 18 17 0 0
BITMAP
0555500000
2AAAAA9000
26AAAA6400
255555A600
2595569A40
259AAA5980
2590016680
6AAA009650
5555009A50
1555009650
6AAA009650
25A4026580
259AA99980
25AAAA6600
2555559900
26AAA96400
2AAAAA8000
ENDCHAR
STARTCHAR Ntilde
ENCODING 209
SWIDTH 877 0
DWIDTH 18 0
BBX 16 22 1 0
BITMAP
02AAA160
09555660
0A955590
061AAA40
00000000
00000000
D96005A6
A59805A6
966505A6
99A605A6
A69985A6
A26695A6
A59665A6
A55995A6
A5A658A6
A59966A6
A5899A66
A5826996
A581A666
A5809966
A580259A
A580166A
ENDCHAR
STARTCHAR Ograve
ENCODING 210
SWIDTH 933 0
DWIDTH 19 0
BBX 18 24 0 -1
BITMAP
0090000000
0259000000
0065900000
0006540000
0000500000
0000000000
0006AA4000
006555A400
025A569900
0996AA6640
1A69A59980
269A066650
2994009960
59600029A0
5A600025A0
5A600025A0
59600029A0
2994009A60
2666566650
0999559980
0666A96600
019A5A9900
006955A000
0005A90000
ENDCHAR
STARTCHAR Oacute
ENCODING 211
SWIDTH 933 0
DWIDTH 19 0
BBX 18 24 0 -1
BITMAP
0000002400
0000029900
000029A400
00009A4000
0000240000
0000000000
0006AA4000
006555A400
025A569900
0996AA6640
1A69A59980
269A066650
2994009960
59600029A0
5A600025A0
5A600025A0
59600029A0
2994009A60
2666566650
0999559980
0666A96600
019A5A9900
006955A000
0005A90000
ENDCHAR
STARTCHAR Ocircumflex
ENCODING 212
SWIDTH 933 0
DWIDTH 19 0
BBX 18 24 0 -1
BITMAP
0000980000
0001980000
0002250000
0002960000
00058A0000
0000000000
0006AA4000
006555A400
025A569900
0996AA6640
1A69A59980
269A066650
2994009960
59600029A0
5A600025A0
5A600025A0
59600029A0
2994009A60
2666566650
0999559980
0666A96600
019A5A9900
006955A000
0005A90000
ENDCHAR
STARTCHAR Otilde
ENCODING 213
SWIDTH 933 0
DWIDTH 19 0
BBX 18 23 0 -1
BITMAP
006AAA2500
0095556900
0165555800
0152AAA000
0000000000
0006AA4000
006555A400
025A569900
0996AA6640
1A69A59980
269A066650
2994009960
59600029A0
5A600025A0
5A600025A0
59600029A0
2994009A60
2666566650
0999559980
0666A96600
019A5A9900
006955A000
0005A90000
ENDCHAR
STARTCHAR Odieresis
ENCODING 214
SWIDTH 933 0
DWIDTH 19 0
BBX 18 21 0 -1
BITMAP
005A05A000
005A05A000
0000000000
0006AA4000
006555A400
025A569900
0996AA6640
1A69A59980
269A066650
2994009960
59600029A0
5A600025A0
5A600025A0
59600029A0
2994009A60
2666566650
0999559980
0666A96600
019A5A9900
006955A000
0005A90000
ENDCHAR
STARTCHAR multiply
ENCODING 215
SWIDTH 790 0
DWIDTH 16 0
BBX 15 14 0 0
BITMAP
69982698
26659994
09A5A660
06966590
02699980
00996600
00665900
00599900
00966600
02669980
0599A590
09A65660
26659994
69982658
ENDCHAR
STARTCHAR Oslash
ENCODING 216
SWIDTH 938 0
DWIDTH 19 0
BBX 18 22 0 -3
BITMAP
0000005000
0000009900
0006AA5600
006555A400
025A569900
0996AA6640
1A69A59980
269A066650
2994009960
59600029A0
5A500025A0
5A600025A0
5960006960
2994009A60
2666566650
0999559980
0666A96600
019A5A9900
016955A000
0295A90000
0594000000
0060000000
ENDCHAR
STARTCHAR Ugrave
ENCODING 217
SWIDTH 905 0
DWIDTH 18 0
BBX 18 24 0 -1
BITMAP
0090000000
0659000000
00A5900000
000A540000
0000900000
0000000000
0000000000
6960009650
6960009650
6960009650
6960009650
6960009650
6960009650
6960009650
6960009650
6960009650
2960009690
29A401A680
269A5A6980
1A69569A40
0996A96600
025A5A5800
0065559000
0006A90000
ENDCHAR
STARTCHAR Uacute
ENCODING 218
SWIDTH 905 0
DWIDTH 18 0
BBX 18 24 0 -1
BITMAP
0000006000
0000069900
000065A000
00015A0000
0000600000
0000000000
0000000000
6960009650
6960009650
6960009650
6960009650
6960009650
6960009650
6960009650
6960009650
6960009650
2960009690
29A401A680
269A5A6980
1A69569A40
0996A96600
025A5A5800
0065559000
0006A90000
ENDCHAR
STARTCHAR Ucircumflex
ENCODING 219
SWIDTH 905 0
DWIDTH 18 0
BBX 18 24 0 -1
BITMAP
0001940000
0002980000
0002680000
0005A50000
0009560000
0000000000
0000000000
6960009650
6960009650
6960009650
6960009650
6960009650
6960009650
6960009650
6960009650
6960009650
2960009690
29A401A680
269A5A6980
1A69569A40
0996A96600
025A5A5800
0065559000
0006A90000
ENDCHAR
STARTCHAR Udieresis
ENCODING 220
SWIDTH 905 0
DWIDTH 18 0
BBX 18 21 0 -1
BITMAP
0096096000
0096096000
0000000000
0000000000
6960009650
6960009650
6960009650
6960009650
6960009650
6960009650
6960009650
6960009650
6960009650
2960009690
29A401A680
269A5A6980
1A69569A40
0996A96600
025A5A5800
0065559000
0006A90000
ENDCHAR
STARTCHAR Yacute
ENCODING 221
SWIDTH 789 0
DWIDTH 16 0
BBX 15 23 0 0
BITMAP
00000180
00001960
00019680
00056400
00014000
00000000
00000000
5A600968
25A01658
169825A4
09685960
05A69650
0299A580
016A5940
00A69600
0099A500
002A5800
00269400
00269400
00269400
00269400
00269400
00269400
ENDCHAR
STARTCHAR Thorn
ENCODING 222
SWIDTH 798 0
DWIDTH 16 0
BBX 15 19 1 -2
BITMAP
A5800000
A5800000
A5AAA400
A5AA9A00
A5956980
A595A650
A5AA9960
A58069A0
A5802594
A5802594
A58099A0
A59A6A60
A5AA9590
A5956640
A5955900
A5AA9000
A5800000
A5800000
51400000
ENDCHAR
STARTCHAR germandbls
ENCODING 223
SWIDTH 826 0
DWIDTH 17 0
BBX 15 19 1 -2
BITMAP
01AAA800
19555640
26555990
99AAA660
A66A9994
A5802694
A5956694
A59559A0
A5AAA960
A5AAA698
A5801A58
A5800A58
A5AAA698
A59AA994
A5955A60
A5AA9580
A5AAA900
A5800000
50400000
ENDCHAR
STARTCHAR agrave
ENCODING 224
SWIDTH 832 0
DWIDTH 17 0
BBX 16 22 0 -1
BITMAP
02400000
09640000
02964000
00295000
00014000
00000000
00055000
00A55A40
065AA990
09969664
26655998
299AA665
596009A6
5A600596
5A600296
59600296
25996696
26655696
09969696
025AA696
00655696
00055000
ENDCHAR
STARTCHAR aacute
ENCODING 225
SWIDTH 832 0
DWIDTH 17 0
BBX 16 22 0 -1
BITMAP
00000180
00001A64
0001A680
00056800
00008000
00000000
00055000
00A55A40
065AA990
09969664
26655998
299AA665
596009A6
5A600596
5A600296
59600296
25996696
26655696
09969696
025AA696
00655696
00055000
ENDCHAR
STARTCHAR acircumflex
ENCODING 226
SWIDTH 832 0
DWIDTH 17 0
BBX 16 22 0 -1
BITMAP
00065000
000A6000
0008A000
00169800
00255800
00000000
00055000
00A55A40
065AA990
09969664
26655998
299AA665
596009A6
5A600596
5A600296
59600296
25996696
26655696
09969696
025AA696
00655696
00055000
ENDCHAR
STARTCHAR atilde
ENCODING 227
SWIDTH 832 0
DWIDTH 17 0
BBX 16 21 0 -1
BITMAP
01AAA460
06555660
09955560
095AAA40
00000000
00055000
00A55A40
065AA990
09969664
26655998
299AA665
596009A6
5A600596
5A600296
59600296
25996696
26655696
09969696
025AA696
00655696
00055000
ENDCHAR
STARTCHAR adieresis
ENCODING 228
SWIDTH 832 0
DWIDTH 17 0
BBX 16 19 0 -1
BITMAP
02582580
02582580
00000000
00055000
00A55A40
065AA990
09969664
26655998
299AA665
596009A6
5A600596
5A600296
59600296
25996696
26655696
09969696
025AA696
00655696
00055000
ENDCHAR
STARTCHAR aring
ENCODING 229
SWIDTH 832 0
DWIDTH 17 0
BBX 16 22 0 -1
BITMAP
00029000
00099400
00152800
00156800
00096400
00014000
00055000
00A55A40
065AA990
09969664
26655998
299AA665
596009A6
5A600596
5A600296
59600296
25996696
26655696
09969696
025AA696
00655696
00055000
ENDCHAR
STARTCHAR ae
ENCODING 230
SWIDTH 1166 0
DWIDTH 23 0
BBX 23 16 0 -1
BITMAP
000550000000
00A55A16AAA4
065AA9A6AAA4
099696665550
2665599A5554
299AA6660000
596009A7AAA0
5A6005975550
5A6002965550
59600297AAA0
259966960000
26655696AAA4
099696965550
025AA696AAA4
00655697AAA4
000550000000
ENDCHAR
STARTCHAR ccedilla
ENCODING 231
SWIDTH 736 0
DWIDTH 15 0
BBX 14 22 0 -7
BITMAP
001AA400
00A55640
06696960
099AA590
26659640
29995800
59600000
5A600000
5A600000
59600000
29996900
26655640
099AA590
06696960
00A55640
000BF400
00295000
00269000
00680000
002A9000
00254000
00059000
ENDCHAR
STARTCHAR egrave
ENCODING 232
SWIDTH 666 0
DWIDTH 13 0
BBX 13 21 0 0
BITMAP
18000000
66900000
1A690000
01A60000
00180000
00000000
00000000
296AAA40
296AAA40
29655500
29655540
29600000
296AAA00
29655500
29655500
296AAA00
29600000
296AAA40
29655500
296AAA40
296AAA40
ENDCHAR
STARTCHAR eacute
ENCODING 233
SWIDTH 666 0
DWIDTH 13 0
BBX 12 21 1 0
BITMAP
000018
000196
001964
005640
001400
000000
000000
A5AAA9
A5AAA9
A59554
A59555
A58000
A5AAA8
A59554
A59554
A5AAA8
A58000
A5AAA9
A59554
A5AAA9
A5AAA9
ENDCHAR
STARTCHAR ecircumflex
ENCODING 234
SWIDTH 666 0
DWIDTH 13 0
BBX 12 21 1 0
BITMAP
005800
00A500
015600
025A40
028980
000000
000000
A5AAA9
A5AAA9
A59554
A59555
A58000
A5AAA8
A59554
A59554
A5AAA8
A58000
A5AAA9
A59554
A5AAA9
A5AAA9
ENDCHAR
STARTCHAR edieresis
ENCODING 235
SWIDTH 666 0
DWIDTH 13 0
BBX 12 18 1 0
BITMAP
294294
294294
000000
000000
A5AAA9
A5AAA9
A59554
A59555
A58000
A5AAA8
A59554
A59554
A5AAA8
A58000
A5AAA9
A59554
A5AAA9
A5AAA9
ENDCHAR
STARTCHAR igrave
ENCODING 236
SWIDTH 337 0
DWIDTH 7 0
BBX 9 21 -3 0
BITMAP
240000
964000
196400
019600
001400
000000
000000
00A580
00A580
00A580
00A580
00A580
00A580
00A580
00A580
00A580
00A580
00A580
00A580
00A580
00A580
ENDCHAR
STARTCHAR iacute
ENCODING 237
SWIDTH 337 0
DWIDTH 7 0
BBX 9 21 1 0
BITMAP
000900
00A640
0A6900
269000
090000
000000
000000
A58000
A58000
A58000
A58000
A58000
A58000
A58000
A58000
A58000
A58000
A58000
A58000
A58000
A58000
ENDCHAR
STARTCHAR icircumflex
ENCODING 238
SWIDTH 337 0
DWIDTH 7 0
BBX 7 21 0 0
BITMAP
0980
1A80
2250
2960
58A4
0000
0000
2960
2960
2960
2960
2960
2960
2960
2960
2960
2960
2960
2960
2960
2960
ENDCHAR
STARTCHAR idieresis
ENCODING 239
SWIDTH 337 0
DWIDTH 7 0
BBX 10 18 -2 0
BITMAP
5A05A0
5A05A0
000000
000000
029600
029600
029600
029600
029600
029600
029600
029600
029600
029600
029600
029600
029600
029600
ENDCHAR
STARTCHAR eth
ENCODING 240
SWIDTH 783 0
DWIDTH 16 0
BBX 15 18 0 -1
BITMAP
006AA400
06555640
15956990
016AA660
005A9994
00106658
00000A58
01AA9A58
096A9A58
26555A58
69955A58
5A6A9A58
5A656658
59955994
266AA660
19A5A990
06955A00
005A9000
ENDCHAR
STARTCHAR ntilde
ENCODING 241
SWIDTH 787 0
DWIDTH 16 0
BBX 14 20 1 0
BITMAP
06AA9580
25555980
26555640
146AA900
00000000
00000000
D9600960
A9980960
A6690960
99660960
A5994960
A2698960
A5A65960
A5996960
A5259960
A5266960
A509A660
A5059960
A50269A0
A501A660
ENDCHAR
STARTCHAR ograve
ENCODING 242
SWIDTH 833 0
DWIDTH 17 0
BBX 16 22 0 -1
BITMAP
02400000
09640000
01964000
00195000
00014000
00000000
001AA400
00A55640
06696960
099AA598
26659668
29995966
59600596
5A60029A
5A60029A
59600596
29996966
26655658
099AA594
06696960
00A55640
0006A400
ENDCHAR
STARTCHAR oacute
ENCODING 243
SWIDTH 833 0
DWIDTH 17 0
BBX 16 22 0 -1
BITMAP
00000090
00001A64
0001A690
00026900
00009000
00000000
001AA400
00A55640
06696960
099AA598
26659668
29995966
59600596
5A60029A
5A60029A
59600596
29996966
26655658
099AA594
06696960
00A55640
0006A400
ENDCHAR
STARTCHAR ocircumflex
ENCODING 244
SWIDTH 833 0
DWIDTH 17 0
BBX 16 22 0 -1
BITMAP
00025000
00066000
00089400
001A9800
00262800
00000000
001AA400
00A55640
06696960
099AA598
26659668
29995966
59600596
5A60029A
5A60029A
59600596
29996966
26655658
099AA594
06696960
00A55640
0006A400
ENDCHAR
STARTCHAR otilde
ENCODING 245
SWIDTH 833 0
DWIDTH 17 0
BBX 16 21 0 -1
BITMAP
01AAA890
065556A0
09955560
094AAA80
00000000
001AA400
00A55640
06696960
099AA598
26659668
29995966
59600596
5A60029A
5A60029A
59600596
29996966
26655658
099AA594
06696960
00A55640
0006A400
ENDCHAR
STARTCHAR odieresis
ENCODING 246
SWIDTH 833 0
DWIDTH 17 0
BBX 16 19 0 -1
BITMAP
01681680
01681680
00000000
001AA400
00A55640
06696960
099AA598
26659668
29995966
59600596
5A60029A
5A60029A
59600596
29996966
26655658
099AA594
06696960
00A55640
0006A400
ENDCHAR
STARTCHAR divide
ENCODING 247
SWIDTH 260 0
DWIDTH 5 0
BBX 7 12 -1 1
BITMAP
0500
0A50
0A50
0A50
0000
6AA8
5554
5554
0510
0A50
0A50
0A50
ENDCHAR
STARTCHAR oslash
ENCODING 248
SWIDTH 832 0
DWIDTH 17 0
BBX 16 18 0 -2
BITMAP
00000240
001AA594
00A55660
06696960
099AA598
26659668
29996966
59600596
5A60029A
5A60029A
59600596
29996966
26655658
099AA594
06696960
09A55640
0566A400
00500000
ENDCHAR
STARTCHAR ugrave
ENCODING 249
SWIDTH 795 0
DWIDTH 16 0
BBX 15 22 0 -1
BITMAP
02400000
19A40000
029A4000
00295000
00020000
00000000
00000000
69600968
69600968
69600968
69600968
69600968
69600968
69600968
69600968
29600A68
25996658
26655994
099AA660
06696990
01A55A00
001AA400
ENDCHAR
STARTCHAR uacute
ENCODING 250
SWIDTH 795 0
DWIDTH 16 0
BBX 15 22 0 -1
BITMAP
00000180
00001960
00019680
00056800
00014000
00000000
00000000
69600968
69600968
69600968
69600968
69600968
69600968
69600968
69600968
29600A68
25996658
26655994
099AA660
06696990
01A55A00
001AA400
ENDCHAR
STARTCHAR ucircumflex
ENCODING 251
SWIDTH 795 0
DWIDTH 16 0
BBX 15 22 0 -1
BITMAP
00065000
000A6000
00096000
00269400
00255800
00000000
00000000
69600968
69600968
69600968
69600968
69600968
69600968
69600968
69600968
29600A68
25996658
26655994
099AA660
06696990
01A55A00
001AA400
ENDCHAR
STARTCHAR udieresis
ENCODING 252
SWIDTH 795 0
DWIDTH 16 0
BBX 15 19 0 -1
BITMAP
02582580
02582580
00000000
00000000
69600968
69600968
69600968
69600968
69600968
69600968
69600968
69600968
29600A68
25996658
26655994
099AA660
06696990
01A55A00
001AA400
ENDCHAR
STARTCHAR yacute
ENCODING 253
SWIDTH 733 0
DWIDTH 15 0
BBX 14 21 0 0
BITMAP
00000240
00002990
00029A40
0009A400
00024000
00000000
00000000
5A6025A0
25A45960
16589680
09656580
05965940
02569600
01696500
009A5800
00659400
0029A000
0029A000
0029A000
0029A000
0029A000
ENDCHAR
STARTCHAR thorn
ENCODING 254
SWIDTH 833 0
DWIDTH 17 0
BBX 15 18 1 -2
BITMAP
A5800000
A5800000
A5800000
A5800000
A5AAAA00
A59AA590
A5955660
A59AA998
A5AAA658
A5800A68
A5AAA658
A5956998
A5955660
A59AA590
A5AAAA00
A5800000
A5800000
A5800000
ENDCHAR
STARTCHAR ydieresis
ENCODING 255
SWIDTH 733 0
DWIDTH 15 0
BBX 14 18 0 0
BITMAP
05A05A00
05A05A00
00000000
00000000
5A6025A0
25A45960
16589680
09656580
05965940
02569600
01696500
009A5800
00659400
0029A000
0029A000
0029A000
0029A000
0029A000
ENDCHAR
STARTCHAR Amacron
ENCODING 256
SWIDTH 936 0
DWIDTH 19 0
BBX 19 16 0 0
BITMAP
000A994000
000A698000
0015A68000
0025965000
0029996000
009A69A400
0096669800
01659A6800
0269896500
029A459600
0996569A40
0965566980
1659A96680
269AAA9650
29A4005960
59600029A4
ENDCHAR
STARTCHAR amacron
ENCODING 257
SWIDTH 832 0
DWIDTH 17 0
BBX 16 16 0 -1
BITMAP
00055000
00A55A40
065AA990
09969664
26655998
299AA665
596009A6
5A600596
5A600296
59600296
25996696
26655696
09969696
025AA696
00655696
00055000
ENDCHAR
STARTCHAR Abreve
ENCODING 258
SWIDTH 936 0
DWIDTH 19 0
BBX 19 20 0 0
BITMAP
00059A4000
0002590000
0000500000
0000000000
000A994000
000A698000
0015A68000
0025965000
0029996000
009A69A400
0096669800
01659A6800
0269896500
029A459600
0996569A40
0965566980
1659A96680
269AAA9650
29A4005960
59600029A4
ENDCHAR
STARTCHAR abreve
ENCODING 259
SWIDTH 832 0
DWIDTH 17 0
BBX 16 19 0 -1
BITMAP
00256800
00096400
00014000
00055000
00A55A40
065AA990
09969664
26655998
299AA665
596009A6
5A600596
5A600296
59600296
25996696
26655696
09969696
025AA696
00655696
00055000
ENDCHAR
STARTCHAR Aogonek
ENCODING 260
SWIDTH 937 0
DWIDTH 19 0
BBX 19 22 0 -6
BITMAP
0007594000
000A658000
0019A69000
00269A6000
0025596000
0059659400
0096665800
01A69A6900
026989A600
0259459600
0596565940
09A6566580
0A69A9A680
269AAA9A60
2594005960
5961902594
0009400000
0009900000
000A000000
000A500000
000A500000
0005500000
ENDCHAR
STARTCHAR aogonek
ENCODING 261
SWIDTH 832 0
DWIDTH 17 0
BBX 16 22 0 -7
BITMAP
00055000
00A55A40
065AA990
09969664
26655998
299AA665
596009A6
5A600596
5A600296
59600296
25996696
26655696
09969696
025AA696
00655696
000B5000
00250000
005A0000
00580000
005A0000
005A0000
00550000
ENDCHAR
STARTCHAR Cacute
ENCODING 262
SWIDTH 852 0
DWIDTH 17 0
BBX 17 24 0 -1
BITMAP
0000002400
0000029900
000029A400
00009A4000
0000240000
0000000000
0006AA4000
006555A000
025A569900
0996AA6640
1A69A59900
269A066000
2994004000
5960000000
5A60000000
5A60000000
5960000000
2994008000
2666566000
0999559940
0666A96600
019A5A9900
006955A000
0005A90000
ENDCHAR
STARTCHAR cacute
ENCODING 263
SWIDTH 736 0
DWIDTH 15 0
BBX 15 22 0 -1
BITMAP
00000090
00001A64
0001A690
00026900
00009000
00000000
001AA400
00A55640
06696960
099AA590
26659640
29995800
59600000
5A600000
5A600000
59600000
29996900
26655640
099AA590
06696960
00A55640
0006A400
ENDCHAR
STARTCHAR Cdotaccent
ENCODING 266
SWIDTH 852 0
DWIDTH 17 0
BBX 17 23 0 -1
BITMAP
0000540000
0001A80000
0001A80000
0000540000
0000540000
0006AA4000
006555A000
025A569900
0996AA6640
1A69A59900
269A066000
2994004000
5960000000
5A60000000
5A60000000
5960000000
2994008000
2666566000
0999559940
0666A96600
019A5A9900
006955A000
0005A90000
ENDCHAR
STARTCHAR cdotaccent
ENCODING 267
SWIDTH 736 0
DWIDTH 15 0
BBX 14 21 0 -1
BITMAP
00015000
0006A000
0006A000
00055000
00015000
001AA400
00A55640
06696960
099AA590
26659640
29995800
59600000
5A600000
5A600000
59600000
29996900
26655640
099AA590
06696960
00A55640
0006A400
ENDCHAR
STARTCHAR Ccaron
ENCODING 268
SWIDTH 852 0
DWIDTH 17 0
BBX 17 24 0 -1
BITMAP
0005890000
0002960000
0002250000
0001A80000
0000D80000
0000000000
0006AA4000
006555A000
025A569900
0996AA6640
1A69A59900
269A066000
2994004000
5960000000
5A60000000
5A60000000
5960000000
2994008000
2666566000
0999559940
0666A96600
019A5A9900
006955A000
0005A90000
ENDCHAR
STARTCHAR ccaron
ENCODING 269
SWIDTH 736 0
DWIDTH 15 0
BBX 14 22 0 -1
BITMAP
00162400
001A5800
00089400
00066000
00036000
00000000
001AA400
00A55640
06696960
099AA590
26659640
29995800
59600000
5A600000
5A600000
59600000
29996900
26655640
099AA590
06696960
00A55640
0006A400
ENDCHAR
STARTCHAR Dcaron
ENCODING 270
SWIDTH 886 0
DWIDTH 18 0
BBX 16 23 1 0
BITMAP
00255800
00269400
0009A000
000A6000
00065000
00000000
55554000
AAAAAA00
AAAAA590
A1555664
A6555998
A5AAA665
A58009A6
A5800696
A580029A
A580029A
A5800596
A58009A6
A5AAA665
A6AAA998
A5555660
9AAAA580
EAAAA900
ENDCHAR
STARTCHAR dcaron
ENCODING 271
SWIDTH 1084 0
DWIDTH 22 0
BBX 20 15 1 0
BITMAP
0000000045
EAAAA8009A
9AAA96409A
A15559901A
A655A66066
A5AA999856
A580265864
A5800A6800
A5800A5800
A580265800
A5AA999800
A6AAA66000
A555599000
9AAA964000
EAAAA80000
ENDCHAR
STARTCHAR Dcroat
ENCODING 272
SWIDTH 888 0
DWIDTH 18 0
BBX 18 17 -1 0
BITMAP
0555540000
0AAAAAA000
0AAAAA5900
0A15556640
0A65559980
0A5AAA6650
0A58009A60
9A5A906960
4A595029A0
0A580029A0
9A59905960
0A58009A60
0A5AAA6650
0A6AAA9980
0A55556600
09AAAA5800
0EAAAA9000
ENDCHAR
STARTCHAR dcroat
ENCODING 273
SWIDTH 833 0
DWIDTH 17 0
BBX 17 14 -1 0
BITMAP
0EAAAA8000
09AAA96400
0A15559900
0A655A6600
0A5AA99940
0A58026580
9A5990A580
9A5A91A580
0A58026580
0A5AA99940
0A6AAA6600
0A55559900
09AAA96400
0EAAAA8000
ENDCHAR
STARTCHAR Emacron
ENCODING 274
SWIDTH 706 0
DWIDTH 14 0
BBX 13 17 1 0
BITMAP
00155500
A5AAAA00
A5AAAA40
A5955500
A5955500
A5800000
A5800000
A5AA4000
A5954000
A5954000
A5AA4000
A5800000
A5800000
A5AAAA00
A5955500
A5AAAA40
A5AAAA40
ENDCHAR
STARTCHAR emacron
ENCODING 275
SWIDTH 666 0
DWIDTH 13 0
BBX 12 14 1 0
BITMAP
A5AAA9
A5AAA9
A59554
A59555
A58000
A5AAA8
A59554
A59554
A5AAA8
A58000
A5AAA9
A59554
A5AAA9
A5AAA9
ENDCHAR
STARTCHAR Ebreve
ENCODING 276
SWIDTH 706 0
DWIDTH 14 0
BBX 13 20 1 0
BITMAP
02568000
00964000
00140000
00155500
A5AAAA00
A5AAAA40
A5955500
A5955500
A5800000
A5800000
A5AA4000
A5954000
A5954000
A5AA4000
A5800000
A5800000
A5AAAA00
A5955500
A5AAAA40
A5AAAA40
ENDCHAR
STARTCHAR ebreve
ENCODING 277
SWIDTH 666 0
DWIDTH 13 0
BBX 12 18 1 0
BITMAP
029980
019600
001400
000000
A5AAA9
A5AAA9
A59554
A59555
A58000
A5AAA8
A59554
A59554
A5AAA8
A58000
A5AAA9
A59554
A5AAA9
A5AAA9
ENDCHAR
STARTCHAR Edotaccent
ENCODING 278
SWIDTH 706 0
DWIDTH 14 0
BBX 13 22 1 0
BITMAP
00150000
00550000
006A0000
00550000
00550000
00155500
A5AAAA00
A5AAAA40
A5955500
A5955500
A5800000
A5800000
A5AA4000
A5954000
A5954000
A5AA4000
A5800000
A5800000
A5AAAA00
A5955500
A5AAAA40
A5AAAA40
ENDCHAR
STARTCHAR edotaccent
ENCODING 279
SWIDTH 666 0
DWIDTH 13 0
BBX 12 20 1 0
BITMAP
005400
005500
00A900
005500
005400
000000
A5AAA9
A5AAA9
A59554
A59555
A58000
A5AAA8
A59554
A59554
A5AAA8
A58000
A5AAA9
A59554
A5AAA9
A5AAA9
ENDCHAR
STARTCHAR Eogonek
ENCODING 280
SWIDTH 706 0
DWIDTH 14 0
BBX 13 23 1 -6
BITMAP
00155500
A5AAAA00
A5EAAA40
A5955500
A5955500
A5800000
A5800000
A5EA4000
A5954000
A5954000
A5AA4000
A5800000
A5800000
A5AAAA00
A5955500
A5AAAA40
A5EAAF40
00002500
00002A00
00005800
00005940
00005940
00001500
ENDCHAR
STARTCHAR eogonek
ENCODING 281
SWIDTH 666 0
DWIDTH 13 0
BBX 12 20 1 -6
BITMAP
A5AAA9
A5AAA9
A59554
A59555
A58000
A5AAA8
A59554
A59554
A5AAA8
A58000
A5AAA9
A59554
A5AAA9
A5AABE
000064
000099
0000A4
0000A6
0000A6
000055
ENDCHAR
STARTCHAR Ecaron
ENCODING 282
SWIDTH 706 0
DWIDTH 14 0
BBX 13 23 1 0
BITMAP
02558000
01698000
008A4000
00A60000
00750000
00000000
00155500
A5AAAA00
A5AAAA40
A5955500
A5955500
A5800000
A5800000
A5AA4000
A5954000
A5954000
A5AA4000
A5800000
A5800000
A5AAAA00
A5955500
A5AAAA40
A5AAAA40
ENDCHAR
STARTCHAR ecaron
ENCODING 283
SWIDTH 666 0
DWIDTH 13 0
BBX 12 21 1 0
BITMAP
028940
025A40
015600
00A500
00A800
000000
000000
A5AAA9
A5AAA9
A59554
A59555
A58000
A5AAA8
A59554
A59554
A5AAA8
A58000
A5AAA9
A59554
A5AAA9
A5AAA9
ENDCHAR
STARTCHAR Gbreve
ENCODING 286
SWIDTH 908 0
DWIDTH 18 0
BBX 18 21 0 -1
BITMAP
00059A0000
0002590000
0000500000
0006AA4000
006555A000
025A569900
0996AA6640
1A69A59900
269A066000
2994004000
5960000000
5A60004500
5A60009A50
5960009A50
29A4009A50
269A56DA50
1969559A50
0966AA9A50
029A5ADA50
0069559A50
0006A94000
ENDCHAR
STARTCHAR gbreve
ENCODING 287
SWIDTH 827 0
DWIDTH 17 0
BBX 16 19 0 -1
BITMAP
00266800
00096400
00014000
001AA400
00A55640
06696960
099AA590
26659640
29995800
59600000
5A600000
5A600696
59600696
29995A96
26655696
099AAA96
06696A96
00A55696
0006A400
ENDCHAR
STARTCHAR Gdotaccent
ENCODING 288
SWIDTH 908 0
DWIDTH 18 0
BBX 18 23 0 -1
BITMAP
0000540000
0001A80000
0001A80000
0000540000
0000540000
0006AA4000
006555A000
025A569900
0996AA6640
1A69A59900
269A066000
2994004000
5960000000
5A60004500
5A60009A50
5960009A50
29A4009A50
269A56DA50
1969559A50
0966AA9A50
029A5ADA50
0069559A50
0006A94000
ENDCHAR
STARTCHAR gdotaccent
ENCODING 289
SWIDTH 827 0
DWIDTH 17 0
BBX 16 21 0 -1
BITMAP
00015000
0006A000
0006A000
00055000
00015000
001AA400
00A55640
06696960
099AA590
26659640
29995800
59600000
5A600000
5A600696
59600696
29995A96
26655696
099AAA96
06696A96
00A55696
0006A400
ENDCHAR
STARTCHAR Gcommaaccent
ENCODING 290
SWIDTH 908 0
DWIDTH 18 0
BBX 18 25 0 -8
BITMAP
0006AA4000
006555A000
025A569900
0996AA6640
1A69A59900
269A066000
2994004000
5960000000
5A60004500
5A60009A50
5960009A50
29A4009A50
269A56DA50
1969559A50
0966AA9A50
029A5ADA50
0069559A50
0006A94000
0001540000
0001680000
0001680000
0000280000
0001980000
0000580000
0001900000
ENDCHAR
STARTCHAR gcommaaccent
ENCODING 291
SWIDTH 827 0
DWIDTH 17 0
BBX 16 16 0 -1
BITMAP
001AA400
00A55640
06696960
099AA590
26659640
29995800
59600000
5A600000
5A600696
59600696
29995A96
26655696
099AAA96
06696A96
00A55696
0006A400
ENDCHAR
STARTCHAR Hcircumflex
ENCODING 292
SWIDTH 901 0
DWIDTH 18 0
BBX 16 23 1 0
BITMAP
00065000
000A6000
0009A000
00169400
00255800
00000000
00000000
A580025A
A580025A
A580025A
A580025A
A580025A
A580025A
A5AAAA5A
A595565A
A595565A
A5AAAA5A
A580025A
A580025A
A580025A
A580025A
A580025A
A580025A
ENDCHAR
STARTCHAR hcircumflex
ENCODING 293
SWIDTH 830 0
DWIDTH 17 0
BBX 15 21 1 0
BITMAP
00098000
00198000
00225000
002A6000
0058A000
00000000
00000000
A5801658
A5801658
A5801658
A5801658
A5801658
A5AAA658
A5AAA658
A5955658
A5956658
A5801658
A5801658
A5801658
A5801658
A5801658
ENDCHAR
STARTCHAR Hbar
ENCODING 294
SWIDTH 901 0
DWIDTH 18 0
BBX 20 16 -1 0
BITMAP
0A580025A0
0A585525A0
5A59AA65A5
5A5AAAA5A9
0A580025A0
0A580025A0
0A5AAAA5A0
0A595565A0
0A595565A0
0A5AAAA5A0
0A580025A0
0A580025A0
0A580025A0
0A580025A0
0A580025A0
0A580025A0
ENDCHAR
STARTCHAR hbar
ENCODING 295
SWIDTH 830 0
DWIDTH 17 0
BBX 18 14 -1 0
BITMAP
0A58016580
5A59A865A0
0A58016580
5A59A96590
0A58016580
0A5AAA6580
0A5AAA6580
0A59556580
0A59566580
0A58016580
0A58016580
0A58016580
0A58016580
0A58016580
ENDCHAR
STARTCHAR Itilde
ENCODING 296
SWIDTH 338 0
DWIDTH 7 0
BBX 13 22 -3 0
BITMAP
1AAA8940
25555A40
59555600
54AAA800
00000000
00000000
00A58000
00A58000
00A58000
00A58000
00A58000
00A58000
00A58000
00A58000
00A58000
00A58000
00A58000
00A58000
00A58000
00A58000
00A58000
00A58000
ENDCHAR
STARTCHAR itilde
ENCODING 297
SWIDTH 337 0
DWIDTH 7 0
BBX 13 20 -3 0
BITMAP
1AAA8940
25555A40
59555600
54AAA800
00000000
00000000
00A58000
00A58000
00A58000
00A58000
00A58000
00A58000
00A58000
00A58000
00A58000
00A58000
00A58000
00A58000
00A58000
00A58000
ENDCHAR
STARTCHAR Imacron
ENCODING 298
SWIDTH 338 0
DWIDTH 7 0
BBX 5 16 1 0
BITMAP
A580
A580
A580
A580
A580
A580
A580
A580
A580
A580
A580
A580
A580
A580
A580
A580
ENDCHAR
STARTCHAR imacron
ENCODING 299
SWIDTH 337 0
DWIDTH 7 0
BBX 5 14 1 0
BITMAP
A580
A580
A580
A580
A580
A580
A580
A580
A580
A580
A580
A580
A580
A580
ENDCHAR
STARTCHAR Ibreve
ENCODING 300
SWIDTH 338 0
DWIDTH 7 0
BBX 7 20 0 0
BITMAP
59A4
2590
0500
0000
2960
2960
2960
2960
2960
2960
2960
2960
2960
2960
2960
2960
2960
2960
2960
2960
ENDCHAR
STARTCHAR ibreve
ENCODING 301
SWIDTH 337 0
DWIDTH 7 0
BBX 7 18 0 0
BITMAP
59A4
2590
0500
0000
2960
2960
2960
2960
2960
2960
2960
2960
2960
2960
2960
2960
2960
2960
ENDCHAR
STARTCHAR Iogonek
ENCODING 302
SWIDTH 338 0
DWIDTH 7 0
BBX 5 22 1 -6
BITMAP
A580
A580
A580
A580
A580
A580
A580
A580
A580
A580
A580
A580
A580
A580
A580
A7C0
1940
2640
2500
2580
2580
1540
ENDCHAR
STARTCHAR iogonek
ENCODING 303
SWIDTH 337 0
DWIDTH 7 0
BBX 5 20 1 -6
BITMAP
A580
A580
A580
A580
A580
A580
A580
A580
A580
A580
A580
A580
A580
A7C0
1940
2640
2500
2580
2580
1540
ENDCHAR
STARTCHAR Idotaccent
ENCODING 304
SWIDTH 338 0
DWIDTH 7 0
BBX 5 22 1 0
BITMAP
1500
6A00
6A00
1500
1500
0000
A580
A580
A580
A580
A580
A580
A580
A580
A580
A580
A580
A580
A580
A580
A580
A580
ENDCHAR
STARTCHAR dotlessi
ENCODING 305
SWIDTH 337 0
DWIDTH 7 0
BBX 5 14 1 0
BITMAP
A580
A580
A580
A580
A580
A580
A580
A580
A580
A580
A580
A580
A580
A580
ENDCHAR
STARTCHAR IJ
ENCODING 306
SWIDTH 774 0
DWIDTH 16 0
BBX 14 17 1 -1
BITMAP
A5805A60
A5805A60
A5805A60
A5805A60
A5805A60
A5805A60
A5805A60
A5805A60
A5805A60
A5805A60
A5805A60
A5819A50
A5856690
A58A9980
A585A600
A5855800
000A9000
ENDCHAR
STARTCHAR ij
ENCODING 307
SWIDTH 729 0
DWIDTH 15 0
BBX 13 16 1 -2
BITMAP
A581A580
A581A580
A581A580
A581A580
A581A580
A581A580
A581A580
A581A580
A581A580
A581A580
A5816580
A5895940
A5869600
A585A500
000A6800
000A9000
ENDCHAR
STARTCHAR Jcircumflex
ENCODING 308
SWIDTH 434 0
DWIDTH 9 0
BBX 8 24 0 -1
BITMAP
0098
01A8
0225
0296
058A
0000
0000
0296
0296
0296
0296
0296
0296
0296
0296
0296
0296
0296
1996
5665
6998
5A64
1590
6900
ENDCHAR
STARTCHAR jcircumflex
ENCODING 309
SWIDTH 393 0
DWIDTH 8 0
BBX 8 23 0 -2
BITMAP
0260
02A4
0998
0958
1625
0000
0000
0A68
0A68
0A68
0A68
0A68
0A68
0A68
0A68
0A68
0A68
1A58
6698
6994
1660
6580
6900
ENDCHAR
STARTCHAR Kcommaaccent
ENCODING 310
SWIDTH 815 0
DWIDTH 16 0
BBX 15 24 1 -8
BITMAP
A5802598
A5805960
A5809660
A5826580
A5825940
A5899600
A5896500
A5A65800
A5965800
A5896600
A5859600
A5825980
A5816680
A5809660
A58059A0
A5802598
00000000
00154000
00169000
00169000
00028000
00098000
00058000
00190000
ENDCHAR
STARTCHAR kcommaaccent
ENCODING 311
SWIDTH 801 0
DWIDTH 16 0
BBX 15 22 1 -8
BITMAP
A5802994
A5809A60
A581A690
A5826980
A5859A40
A5896600
A5965800
A5965800
A5896600
A5859A00
A5826980
A581A690
A5809A60
A5802994
00000000
00154000
00168000
00168000
00028000
00198000
00058000
00190000
ENDCHAR
STARTCHAR kgreenlandic
ENCODING 312
SWIDTH 801 0
DWIDTH 16 0
BBX 15 14 1 0
BITMAP
A5802994
A5809A60
A581A690
A5826980
A5859A40
A5896600
A5965800
A5965800
A5896600
A5859A00
A5826980
A581A690
A5809A60
A5802994
ENDCHAR
STARTCHAR Lacute
ENCODING 313
SWIDTH 604 0
DWIDTH 12 0
BBX 12 23 1 0
BITMAP
000064
000699
0069A4
009A00
002000
000000
000000
A58000
A58000
A58000
A58000
A58000
A58000
A58000
A58000
A58000
A58000
A58000
A58000
A5AAA4
A59550
A5AAA4
A5AAA4
ENDCHAR
STARTCHAR lacute
ENCODING 314
SWIDTH 583 0
DWIDTH 12 0
BBX 10 21 1 0
BITMAP
000900
00A640
0A6900
269000
090000
000000
000000
A58000
A58000
A58000
A58000
A58000
A58000
A58000
A58000
A58000
A58000
A5AAA0
A59550
A5AAA0
A5AAA0
ENDCHAR
STARTCHAR Lcommaaccent
ENCODING 315
SWIDTH 604 0
DWIDTH 12 0
BBX 11 24 1 -8
BITMAP
A58000
A58000
A58000
A58000
A58000
A58000
A58000
A58000
A58000
A58000
A58000
A58000
A5AAA4
A59550
A5AAA4
A5AAA4
000000
015400
026800
026800
006800
019800
016400
019000
ENDCHAR
STARTCHAR lcommaaccent
ENCODING 316
SWIDTH 583 0
DWIDTH 12 0
BBX 10 22 1 -8
BITMAP
A58000
A58000
A58000
A58000
A58000
A58000
A58000
A58000
A58000
A58000
A5AAA0
A59550
A5AAA0
A5AAA0
000000
015400
025800
025800
005800
019800
016400
029000
ENDCHAR
STARTCHAR Lcaron
ENCODING 317
SWIDTH 856 0
DWIDTH 17 0
BBX 16 17 1 0
BITMAP
00000051
A58000A5
A58000A5
A5800065
A5800065
A5800058
A58000A0
A5800000
A5800000
A5800000
A5800000
A5800000
A5800000
A5AAA400
A5955000
A5AAA400
A5EAA400
ENDCHAR
STARTCHAR lcaron
ENCODING 318
SWIDTH 584 0
DWIDTH 12 0
BBX 10 15 1 0
BITMAP
000450
A58960
A58960
A58560
A58660
A58590
A58640
A58000
A58000
A58000
A58000
A5AAA0
A59550
A5AAA0
A5AAA0
ENDCHAR
STARTCHAR Ldot
ENCODING 319
SWIDTH 604 0
DWIDTH 12 0
BBX 11 16 1 0
BITMAP
A58000
A58000
A58000
A58000
A58000
A58540
A58550
A58A90
A58550
A58540
A58000
A58000
A5AAA4
A59550
A5AAA4
A5AAA4
ENDCHAR
STARTCHAR ldot
ENCODING 320
SWIDTH 582 0
DWIDTH 12 0
BBX 10 14 1 0
BITMAP
A58000
A58000
A58540
A58550
A58A90
A58550
A58540
A58000
A58000
A58000
A5AAA0
A59550
A5AAA0
A5AAA0
ENDCHAR
STARTCHAR Lslash
ENCODING 321
SWIDTH 604 0
DWIDTH 12 0
BBX 14 16 -2 0
BITMAP
02960000
02960000
02960000
02961800
02966400
02966800
16961800
52965000
62960000
26960000
02960000
02960000
0296AA90
02965540
0296AA90
0296AA90
ENDCHAR
STARTCHAR lslash
ENCODING 322
SWIDTH 581 0
DWIDTH 12 0
BBX 13 14 -2 0
BITMAP
02960000
02960000
02960400
02966400
02966800
16965800
52965000
62960000
26960000
12960000
0296AA80
02965540
0296AA80
0296AA80
ENDCHAR
STARTCHAR Nacute
ENCODING 323
SWIDTH 877 0
DWIDTH 18 0
BBX 16 23 1 0
BITMAP
00000180
00001960
00019640
00056400
00014000
00000000
00000000
D96005A6
A59805A6
966505A6
99A605A6
A69985A6
A26695A6
A59665A6
A55995A6
A5A658A6
A59966A6
A5899A66
A5826996
A581A666
A5809966
A580259A
A580166A
ENDCHAR
STARTCHAR nacute
ENCODING 324
SWIDTH 787 0
DWIDTH 16 0
BBX 14 21 1 0
BITMAP
00000600
00006580
00065A00
00159000
00050000
00000000
00000000
D9600960
A9980960
A6690960
99660960
A5994960
A2698960
A5A65960
A5996960
A5259960
A5266960
A509A660
A5059960
A50269A0
A501A660
ENDCHAR
STARTCHAR Ncommaaccent
ENCODING 325
SWIDTH 877 0
DWIDTH 18 0
BBX 16 24 1 -8
BITMAP
D96005A6
A59805A6
966505A6
99A605A6
A69985A6
A26695A6
A59665A6
A55995A6
A5A658A6
A59966A6
A5899A66
A5826996
A581A666
A5809966
A580259A
A580166A
00000000
00055000
000A6000
000A6000
00026000
00065000
00058000
000A0000
ENDCHAR
STARTCHAR ncommaaccent
ENCODING 326
SWIDTH 787 0
DWIDTH 16 0
BBX 14 22 1 -8
BITMAP
D9600960
A9980960
A6690960
99660960
A5994960
A2698960
A5A65960
A5996960
A5259960
A5266960
A509A660
A5059960
A50269A0
A501A660
00000000
00154000
00258000
00258000
00098000
00198000
00164000
00290000
ENDCHAR
STARTCHAR Ncaron
ENCODING 327
SWIDTH 877 0
DWIDTH 18 0
BBX 16 23 1 0
BITMAP
00249800
00259400
00156000
000A5000
000A8000
00000000
00000000
D96005A6
A59805A6
966505A6
99A605A6
A69985A6
A26695A6
A59665A6
A55995A6
A5A658A6
A59966A6
A5899A66
A5826996
A581A666
A5809966
A580259A
A580166A
ENDCHAR
STARTCHAR ncaron
ENCODING 328
SWIDTH 787 0
DWIDTH 16 0
BBX 14 21 1 0
BITMAP
00956000
00965000
00558000
00298000
001A0000
00000000
00000000
D9600960
A9980960
A6690960
99660960
A5994960
A2698960
A5A65960
A5996960
A5259960
A5266960
A509A660
A5059960
A50269A0
A501A660
ENDCHAR
STARTCHAR Eng
ENCODING 330
SWIDTH 874 0
DWIDTH 17 0
BBX 16 23 1 -7
BITMAP
D96405A6
A59805A6
966505A6
999605A6
A65985A6
A26655A6
A59965A6
A56999A6
A5A665A6
A589A5A6
A58695A6
A58265A6
A58095A6
A58055A6
A58025A6
A58015A6
000009A5
0000A965
00005A58
00005594
0000A960
00005A40
00005000
ENDCHAR
STARTCHAR eng
ENCODING 331
SWIDTH 691 0
DWIDTH 14 0
BBX 12 20 1 -6
BITMAP
D9609A
A9989A
A6699A
99669A
A59A9A
A2699A
A5A69A
A5999A
A5259A
A5269A
A5099A
A5059A
A5029A
A5019A
000096
000196
000265
000298
0001A0
000140
ENDCHAR
STARTCHAR Omacron
ENCODING 332
SWIDTH 933 0
DWIDTH 19 0
BBX 18 18 0 -1
BITMAP
0006AA4000
006555A400
025A569900
0996AA6640
1A69A59980
269A066650
2994009960
59600029A0
5A600025A0
5A600025A0
59600029A0
2994009A60
2666566650
0999559980
0666A96600
019A5A9900
006955A000
0005A90000
ENDCHAR
STARTCHAR omacron
ENCODING 333
SWIDTH 833 0
DWIDTH 17 0
BBX 16 16 0 -1
BITMAP
001AA400
00A55640
06696960
099AA598
26659668
29995966
59600596
5A60029A
5A60029A
59600596
29996966
26655658
099AA594
06696960
00A55640
0006A400
ENDCHAR
STARTCHAR Obreve
ENCODING 334
SWIDTH 933 0
DWIDTH 19 0
BBX 18 21 0 -1
BITMAP
00059A0000
0002590000
0000500000
0006AA4000
006555A400
025A569900
0996AA6640
1A69A59980
269A066650
2994009960
59600029A0
5A600025A0
5A600025A0
59600029A0
2994009A60
2666566650
0999559980
0666A96600
019A5A9900
006955A000
0005A90000
ENDCHAR
STARTCHAR obreve
ENCODING 335
SWIDTH 833 0
DWIDTH 17 0
BBX 16 19 0 -1
BITMAP
00266800
00096400
00014000
001AA400
00A55640
06696960
099AA598
26659668
29995966
59600596
5A60029A
5A60029A
59600596
29996966
26655658
099AA594
06696960
00A55640
0006A400
ENDCHAR
STARTCHAR Ohungarumlaut
ENCODING 336
SWIDTH 933 0
DWIDTH 19 0
BBX 20 24 0 -1
BITMAP
0000180060
0001960659
00196465A0
0056415A00
0014006000
0000000000
0006AA4000
006555A400
025A569900
0996AA6640
1A69A59980
269A066650
2994009960
59600029A0
5A600025A0
5A600025A0
59600029A0
2994009A60
2666566650
0999559980
0666A96600
019A5A9900
006955A000
0005A90000
ENDCHAR
STARTCHAR ohungarumlaut
ENCODING 337
SWIDTH 833 0
DWIDTH 17 0
BBX 18 22 0 -1
BITMAP
0000600180
0006581960
00A5919680
0259056800
0050014000
0000000000
001AA40000
00A5564000
0669696000
099AA59800
2665966800
2999596600
5960059600
5A60029A00
5A60029A00
5960059600
2999696600
2665565800
099AA59400
0669696000
00A5564000
0006A40000
ENDCHAR
STARTCHAR OE
ENCODING 338
SWIDTH 1317 0
DWIDTH 26 0
BBX 26 18 0 -1
BITMAP
0006AA40055540
006555A5AAAA90
025A5699AAAA90
0996AA69A55550
1A69A595A55550
269A0669A00000
29940099A00000
59600025AAA000
5A500025A55000
5A600025A55000
59600065AAA000
29940099A00000
26665669A00000
09995599AAAA90
0666A969A55550
019A5A99AAAA90
006955A5AAAA90
0005A900000000
ENDCHAR
STARTCHAR oe
ENCODING 339
SWIDTH 1174 0
DWIDTH 23 0
BBX 23 16 0 -1
BITMAP
001AA4000000
00A5565AAAA4
0669699AAAA4
098AA55A5554
2661969A5554
2999599A0000
5960059AAAA4
5A20029A5550
5A20029A5550
5960059AAAA4
2989699A0000
26215A9AAAA4
098AA55A5554
0669699AAAA4
00A5565AAAA4
0006A4000000
ENDCHAR
STARTCHAR Racute
ENCODING 340
SWIDTH 843 0
DWIDTH 17 0
BBX 16 23 1 0
BITMAP
00006000
00065800
00659000
01590000
00500000
00000000
55554000
AAAAAA40
AAAAA990
A1555664
A6555998
A5AAA668
A5800965
A5956969
A5955658
A5AAA598
A5AAAA60
A5955680
A596B980
A5809680
A5809A50
A5806960
A58025A0
ENDCHAR
STARTCHAR Rcommaaccent
ENCODING 342
SWIDTH 843 0
DWIDTH 17 0
BBX 16 25 1 -8
BITMAP
55554000
AAAAAA40
AAAAA990
A1555664
A6555998
A5AAA668
A5800965
A5956969
A5955658
A5AAA598
A5AAAA60
A5955680
A596B980
A5809680
A5809A50
A5806960
A58025A0
00000000
00154000
00258000
00258000
00058000
00198000
00164000
00190000
ENDCHAR
STARTCHAR rcommaaccent
ENCODING 343
SWIDTH 831 0
DWIDTH 17 0
BBX 15 22 1 -8
BITMAP
EAAAAA00
9AAAA990
A1555660
A6555998
A5AAA658
A5801A68
A59AA658
A5AAA998
A5955A60
A5955590
A5AAAE40
A5816980
A580A680
A5809A50
00000000
00154000
00298000
00298000
00098000
00194000
00160000
00280000
ENDCHAR
STARTCHAR Rcaron
ENCODING 344
SWIDTH 843 0
DWIDTH 17 0
BBX 16 23 1 0
BITMAP
06250000
09690000
05980000
02940000
02600000
00000000
55554000
AAAAAA40
AAAAA990
A1555664
A6555998
A5AAA668
A5800965
A5956969
A5955658
A5AAA598
A5AAAA60
A5955680
A596B980
A5809680
A5809A50
A5806960
A58025A0
ENDCHAR
STARTCHAR rcaron
ENCODING 345
SWIDTH 831 0
DWIDTH 17 0
BBX 15 21 1 0
BITMAP
00589400
00296000
00226000
001A8000
00098000
00000000
00000000
EAAAAA00
9AAAA990
A1555660
A6555998
A5AAA658
A5801A68
A59AA658
A5AAA998
A5955A60
A5955590
A5AAAE40
A5816980
A580A680
A5809A50
ENDCHAR
STARTCHAR Sacute
ENCODING 346
SWIDTH 682 0
DWIDTH 14 0
BBX 13 24 0 -1
BITMAP
00000600
00006580
00065A00
0015A000
00060000
00000000
006AA400
06555640
19956980
266AA500
599A9400
5A601000
596A5000
29956800
265AA600
19AA9940
06956580
0015A680
0055A680
01556580
15AA9940
5696A600
19556800
016A5000
ENDCHAR
STARTCHAR sacute
ENCODING 347
SWIDTH 683 0
DWIDTH 14 0
BBX 13 22 0 -1
BITMAP
00000600
00006580
00065A00
0015A000
00060000
00000000
00154000
06956900
19AAA580
265A5600
59905800
5A400000
69AAA400
26955A00
09556540
01AA9980
00002680
02556580
19595980
65AA9600
0695A800
00154000
ENDCHAR
STARTCHAR Scircumflex
ENCODING 348
SWIDTH 682 0
DWIDTH 14 0
BBX 13 24 0 -1
BITMAP
001A0000
00294000
00558000
00965000
00966000
00000000
006AA400
06555640
19956980
266AA500
599A9400
5A601000
596A5000
29956800
265AA600
19AA9940
06956580
0015A680
0055A680
01556580
15AA9940
5696A600
19556800
016A5000
ENDCHAR
STARTCHAR scircumflex
ENCODING 349
SWIDTH 683 0
DWIDTH 14 0
BBX 13 22 0 -1
BITMAP
001A0000
00294000
00658000
00965000
00966000
00000000
00154000
06956900
19AAA580
265A5600
59905800
5A400000
69AAA400
26955A00
09556540
01AA9980
00002680
02556580
19595980
65AA9600
0695A800
00154000
ENDCHAR
STARTCHAR Scedilla
ENCODING 350
SWIDTH 682 0
DWIDTH 14 0
BBX 13 24 0 -7
BITMAP
006AA400
06555640
19956980
266AA500
599A9400
5A601000
596A5000
29956800
265AA600
19AA9940
06956580
0015A680
0055A680
01556580
15AA9940
5696A600
19556800
01BF5000
00960000
026A0000
02500000
026A0000
01950000
00190000
ENDCHAR
STARTCHAR scedilla
ENCODING 351
SWIDTH 683 0
DWIDTH 14 0
BBX 13 22 0 -7
BITMAP
00154000
06956900
19AAA580
265A5600
59905800
5A400000
69AAA400
26955A00
09556540
01AA9980
00002680
02556580
19595980
65AA9600
0695A800
002B4000
00960000
026A0000
02500000
026A0000
01950000
00190000
ENDCHAR
STARTCHAR Scaron
ENCODING 352
SWIDTH 682 0
DWIDTH 14 0
BBX 13 24 0 -1
BITMAP
00956000
009A5000
00268000
00298000
00194000
00000000
006AA400
06555640
19956980
266AA500
599A9400
5A601000
596A5000
29956800
265AA600
19AA9940
06956580
0015A680
0055A680
01556580
15AA9940
5696A600
19556800
016A5000
ENDCHAR
STARTCHAR scaron
ENCODING 353
SWIDTH 683 0
DWIDTH 14 0
BBX 13 22 0 -1
BITMAP
00956000
009A5000
00268000
00298000
00194000
00000000
00154000
06956900
19AAA580
265A5600
59905800
5A400000
69AAA400
26955A00
09556540
01AA9980
00002680
02556580
19595980
65AA9600
0695A800
00154000
ENDCHAR
STARTCHAR Tcommaaccent
ENCODING 354
SWIDTH 591 0
DWIDTH 12 0
BBX 11 24 0 -7
BITMAP
155554
6AAAA8
6AAAA8
155554
16AA94
026940
026940
026940
026940
026940
026940
026940
026940
026940
026940
026940
026940
005800
025800
05A800
098000
09A800
065400
006400
ENDCHAR
STARTCHAR tcommaaccent
ENCODING 355
SWIDTH 588 0
DWIDTH 12 0
BBX 11 21 0 -7
BITMAP
6AAAA8
6AAAA8
155554
56AA94
026940
026940
026940
026940
026940
026940
026940
026940
026940
026940
005800
025800
09A800
098000
09A800
065400
006400
ENDCHAR
STARTCHAR Tcaron
ENCODING 356
SWIDTH 591 0
DWIDTH 12 0
BBX 11 23 0 0
BITMAP
025580
026940
019600
00A600
006900
000000
155554
6AAAA8
6AAAA8
155554
16AA94
026940
026940
026940
026940
026940
026940
026940
026940
026940
026940
026940
026940
ENDCHAR
STARTCHAR tcaron
ENCODING 357
SWIDTH 842 0
DWIDTH 17 0
BBX 16 15 0 0
BITMAP
00000055
6AAAA85A
6AAAA85A
1555540A
56AA9426
02694016
02694064
02694000
02694000
02694000
02694000
02694000
02694000
02694000
02694000
ENDCHAR
STARTCHAR Tbar
ENCODING 358
SWIDTH 591 0
DWIDTH 12 0
BBX 11 17 0 0
BITMAP
155554
6AAAA8
6AAAA8
155554
16AA94
026940
026940
6A6928
566954
026940
6A6968
026940
026940
026940
026940
026940
026940
ENDCHAR
STARTCHAR tbar
ENCODING 359
SWIDTH 588 0
DWIDTH 12 0
BBX 11 14 0 0
BITMAP
6AAAA8
6AAAA8
155554
56AA94
026940
026940
166954
166954
6A6928
166954
166954
026940
026940
026940
ENDCHAR
STARTCHAR Utilde
ENCODING 360
SWIDTH 905 0
DWIDTH 18 0
BBX 18 23 0 -1
BITMAP
006AA91800
0155559800
0265555400
0246AA9000
0000000000
0000000000
6960009650
6960009650
6960009650
6960009650
6960009650
6960009650
6960009650
6960009650
6960009650
2960009690
29A401A680
269A5A6980
1A69569A40
0996A96600
025A5A5800
0065559000
0006A90000
ENDCHAR
STARTCHAR utilde
ENCODING 361
SWIDTH 795 0
DWIDTH 16 0
BBX 15 21 0 -1
BITMAP
01AAA560
09555660
09955590
091AAA40
00000000
00000000
69600968
69600968
69600968
69600968
69600968
69600968
69600968
69600968
29600A68
25996658
26655994
099AA660
06696990
01A55A00
001AA400
ENDCHAR
STARTCHAR Umacron
ENCODING 362
SWIDTH 905 0
DWIDTH 18 0
BBX 18 17 0 -1
BITMAP
6960009650
6960009650
6960009650
6960009650
6960009650
6960009650
6960009650
6960009650
6960009650
2960009690
29A401A680
269A5A6980
1A69569A40
0996A96600
025A5A5800
0065559000
0006A90000
ENDCHAR
STARTCHAR umacron
ENCODING 363
SWIDTH 795 0
DWIDTH 16 0
BBX 15 15 0 -1
BITMAP
69600968
69600968
69600968
69600968
69600968
69600968
69600968
69600968
29600A68
25996658
26655994
099AA660
06696990
01A55A00
001AA400
ENDCHAR
STARTCHAR Ubreve
ENCODING 364
SWIDTH 905 0
DWIDTH 18 0
BBX 18 21 0 -1
BITMAP
000A5A0000
0006590000
0000500000
0000000000
6960009650
6960009650
6960009650
6960009650
6960009650
6960009650
6960009650
6960009650
6960009650
2960009690
29A401A680
269A5A6980
1A69569A40
0996A96600
025A5A5800
0065559000
0006A90000
ENDCHAR
STARTCHAR ubreve
ENCODING 365
SWIDTH 795 0
DWIDTH 16 0
BBX 15 19 0 -1
BITMAP
00295800
00196400
00014000
00000000
69600968
69600968
69600968
69600968
69600968
69600968
69600968
69600968
29600A68
25996658
26655994
099AA660
06696990
01A55A00
001AA400
ENDCHAR
STARTCHAR Uring
ENCODING 366
SWIDTH 905 0
DWIDTH 18 0
BBX 18 24 0 -1
BITMAP
0001A40000
0006590000
0009460000
0009560000
0002580000
0000500000
0000000000
6960009650
6960009650
6960009650
6960009650
6960009650
6960009650
6960009650
6960009650
6960009650
2960009690
29A401A680
269A5A6980
1A69569A40
0996A96600
025A5A5800
0065559000
0006A90000
ENDCHAR
STARTCHAR uring
ENCODING 367
SWIDTH 795 0
DWIDTH 16 0
BBX 15 22 0 -1
BITMAP
00069000
00196000
00285800
00255400
00096000
00014000
00000000
69600968
69600968
69600968
69600968
69600968
69600968
69600968
69600968
29600A68
25996658
26655994
099AA660
06696990
01A55A00
001AA400
ENDCHAR
STARTCHAR Uhungarumlaut
ENCODING 368
SWIDTH 905 0
DWIDTH 18 0
BBX 19 24 0 -1
BITMAP
0000240060
0002990658
0029A46590
009A415900
0024005000
0000000000
0000000000
6960009650
6960009650
6960009650
6960009650
6960009650
6960009650
6960009650
6960009650
6960009650
2960009690
29A401A680
269A5A6980
1A69569A40
0996A96600
025A5A5800
0065559000
0006A90000
ENDCHAR
STARTCHAR uhungarumlaut
ENCODING 369
SWIDTH 795 0
DWIDTH 16 0
BBX 18 22 0 -1
BITMAP
0000900180
001A642960
01A6929640
0269096400
0090014000
0000000000
0000000000
6960096800
6960096800
6960096800
6960096800
6960096800
6960096800
6960096800
6960096800
29600A6800
2599665800
2665599400
099AA66000
0669699000
01A55A0000
001AA40000
ENDCHAR
STARTCHAR Uogonek
ENCODING 370
SWIDTH 905 0
DWIDTH 18 0
BBX 18 23 0 -7
BITMAP
6960009650
6960009650
6960009650
6960009650
6960009650
6960009650
6960009650
6960009650
6960009650
2960009690
29A401A680
269A5A6980
1A69569A40
0996A96600
025A5A5800
0065559000
0007F90000
0006400000
0009900000
000A400000
000A600000
000A600000
0005500000
ENDCHAR
STARTCHAR uogonek
ENCODING 371
SWIDTH 794 0
DWIDTH 16 0
BBX 15 21 0 -7
BITMAP
59600968
59600968
59600968
59600968
59600968
59600968
59600968
59600968
29600A68
25996658
26655994
099AA660
06696980
01A55A00
001FE400
00250000
00260000
00680000
00694000
00694000
00154000
ENDCHAR
STARTCHAR Ycircumflex
ENCODING 374
SWIDTH 789 0
DWIDTH 16 0
BBX 15 23 0 0
BITMAP
00064000
000A6000
00096000
00259400
00255800
00000000
00000000
5A600968
25A01658
169825A4
09685960
05A69650
0299A580
016A5940
00A69600
0099A500
002A5800
00269400
00269400
00269400
00269400
00269400
00269400
ENDCHAR
STARTCHAR ycircumflex
ENCODING 375
SWIDTH 733 0
DWIDTH 15 0
BBX 14 21 0 0
BITMAP
00098000
001A8000
00225000
00296000
0058A000
00000000
00000000
5A6025A0
25A45960
16589680
09656580
05965940
02569600
01696500
009A5800
00659400
0029A000
0029A000
0029A000
0029A000
0029A000
ENDCHAR
STARTCHAR Ydieresis
ENCODING 376
SWIDTH 789 0
DWIDTH 16 0
BBX 15 20 0 0
BITMAP
02582580
02582580
00000000
00000000
5A600968
25A01658
169825A4
09685960
05A69650
0299A580
016A5940
00A69600
0099A500
002A5800
00269400
00269400
00269400
00269400
00269400
00269400
ENDCHAR
STARTCHAR Zacute
ENCODING 377
SWIDTH 854 0
DWIDTH 17 0
BBX 17 23 0 0
BITMAP
0000009000
00000A5800
0000A59000
0002590000
0000900000
0000000000
1555555500
2AAAAAAB40
2AAAAA5900
155554A600
1555566540
2AAA299900
0001996640
000A665800
0066999000
0299A60000
19A6640000
6669900000
29992AAA40
1A65AAAA00
2645555500
196AAAAA00
7AAAAAAA40
ENDCHAR
STARTCHAR zacute
ENCODING 378
SWIDTH 714 0
DWIDTH 14 0
BBX 14 21 0 0
BITMAP
00000640
00006990
00069A40
0009A400
00020000
00000000
00000000
2AA99950
2AAA6650
15565980
15599A40
00166600
00269800
00999400
01A66000
02658000
09998000
09666A90
26695540
5999AA90
5A66AA90
ENDCHAR
STARTCHAR Zdotaccent
ENCODING 379
SWIDTH 854 0
DWIDTH 17 0
BBX 17 22 0 0
BITMAP
0001500000
0002A00000
0006A40000
0001500000
0001500000
1555555500
2AAAAAAB40
2AAAAA5900
155554A600
1555566540
2AAA299900
0001996640
000A665800
0066999000
0299A60000
19A6640000
6669900000
29992AAA40
1A65AAAA00
2645555500
196AAAAA00
7AAAAAAA40
ENDCHAR
STARTCHAR zdotaccent
ENCODING 380
SWIDTH 714 0
DWIDTH 14 0
BBX 14 20 0 0
BITMAP
00054000
001A8000
001A8000
00154000
00154000
00000000
2AA99950
2AAA6650
15565980
15599A40
00166600
00269800
00999400
01A66000
02658000
09998000
09666A90
26695540
5999AA90
5A66AA90
ENDCHAR
STARTCHAR Zcaron
ENCODING 381
SWIDTH 854 0
DWIDTH 17 0
BBX 17 23 0 0
BITMAP
0016250000
0009680000
0009980000
0006A40000
0002600000
0000000000
1555555500
2AAAAAAB40
2AAAAA5900
155554A600
1555566540
2AAA299900
0001996640
000A665800
0066999000
0299A60000
19A6640000
6669900000
29992AAA40
1A65AAAA00
2645555500
196AAAAA00
7AAAAAAA40
ENDCHAR
STARTCHAR zcaron
ENCODING 382
SWIDTH 714 0
DWIDTH 14 0
BBX 14 21 0 0
BITMAP
00986000
005A6000
00225000
00198000
000D8000
00000000
00000000
2AA99950
2AAA6650
15565980
15599A40
00166600
00269800
00999400
01A66000
02658000
09998000
09666A90
26695540
5999AA90
5A66AA90
ENDCHAR
STARTCHAR florin
ENCODING 402
SWIDTH 388 0
DWIDTH 8 0
BBX 7 19 0 -2
BITMAP
00A8
0254
0994
0968
0960
1A64
1A64
6A68
1A64
1A64
0A60
0A60
0A60
0A60
0A60
6650
6980
1640
1400
ENDCHAR
STARTCHAR uni01C4
ENCODING 452
SWIDTH 1740 0
DWIDTH 35 0
BBX 33 23 1 0
BITMAP
000000000005890000
000000000006960000
000000000002250000
000000000001980000
000000000000D80000
000000000000000000
555540000555555540
AAAAAA001AAAAAAAC0
AAAAA5901AAAAA9640
A15556641555542580
A65559980555559980
A5AAA6651AAA596640
A58009A60000665980
A58005960002599A00
A580029A0019966400
A580029A0096668000
A58005960665990000
A58009A61599600000
A5AAA66909664AAA80
A6AAA9981659AAAA80
A15556601991555540
9AAAA580061AAAAA80
EAAAA9001EAAAAAA80
ENDCHAR
STARTCHAR uni01C5
ENCODING 453
SWIDTH 1601 0
DWIDTH 32 0
BBX 31 21 1 0
BITMAP
0000000000255800
0000000000269400
000000000009A000
00000000000A6000
5555400000065000
AAAAAA0000000000
AAAAA59000000000
A15556641AAA6594
A65559981AA999A4
A5AAA66505556660
A58009A615566980
A580059600099940
A580029A001A6600
A580029A00265800
A580059600999800
A58009A600966000
A5AAA66902669000
A6AAA99806999AA4
A155566009A65550
9AAAA58026656AA4
EAAAA9001999AAA4
ENDCHAR
STARTCHAR Scommaaccent
ENCODING 536
SWIDTH 682 0
DWIDTH 14 0
BBX 13 25 0 -8
BITMAP
006AA400
06555640
19956980
266AA500
599A9400
5A601000
596A5000
29956800
265AA600
19AA9940
06956580
0015A680
0055A680
01556580
15AA9940
5696A600
19556800
016A5000
00154000
00294000
00294000
00094000
00194000
00160000
00280000
ENDCHAR
STARTCHAR scommaaccent
ENCODING 537
SWIDTH 683 0
DWIDTH 14 0
BBX 13 23 0 -8
BITMAP
00154000
06956900
19AAA580
265A5600
59905800
5A400000
69AAA400
26955A00
09556540
01AA9980
00002680
02556580
19595980
65AA9600
0695A800
00154000
00154000
00294000
00294000
00094000
00194000
00160000
00280000
ENDCHAR
STARTCHAR uni021A
ENCODING 538
SWIDTH 591 0
DWIDTH 12 0
BBX 11 25 0 -8
BITMAP
155554
6AAAA8
6AAAA8
155554
16AA94
026940
026940
026940
026940
026940
026940
026940
026940
026940
026940
026940
026940
000000
005500
009600
009600
001600
006600
005900
00A400
ENDCHAR
STARTCHAR uni021B
ENCODING 539
SWIDTH 588 0
DWIDTH 12 0
BBX 11 22 0 -8
BITMAP
6AAAA8
6AAAA8
155554
56AA94
026940
026940
026940
026940
026940
026940
026940
026940
026940
026940
000000
005500
009600
009600
002600
006600
005900
00A400
ENDCHAR
STARTCHAR uni0237
ENCODING 567
SWIDTH 393 0
DWIDTH 8 0
BBX 7 16 0 -2
BITMAP
0A68
0A68
0A68
0A68
0A68
0A68
0A68
0A68
0A68
0A68
1A58
6698
6994
1660
6580
6900
ENDCHAR
STARTCHAR circumflex
ENCODING 710
SWIDTH 376 0
DWIDTH 8 0
BBX 6 5 1 15
BITMAP
1600
2940
5580
9690
A660
ENDCHAR
STARTCHAR caron
ENCODING 711
SWIDTH 362 0
DWIDTH 7 0
BBX 7 5 0 15
BITMAP
5894
25A0
1660
0A50
0980
ENDCHAR
STARTCHAR breve
ENCODING 728
SWIDTH 360 0
DWIDTH 7 0
BBX 7 3 0 15
BITMAP
6994
1960
0140
ENDCHAR
STARTCHAR dotaccent
ENCODING 729
SWIDTH 255 0
DWIDTH 5 0
BBX 4 5 1 12
BITMAP
54
A8
A9
54
54
ENDCHAR
STARTCHAR ring
ENCODING 730
SWIDTH 330 0
DWIDTH 7 0
BBX 6 6 0 15
BITMAP
0A40
2650
54A0
58A0
2550
0540
ENDCHAR
STARTCHAR ogonek
ENCODING 731
SWIDTH 250 0
DWIDTH 5 0
BBX 5 7 0 -6
BITMAP
0600
2500
6A00
5800
5940
5940
5500
ENDCHAR
STARTCHAR tilde
ENCODING 732
SWIDTH 665 0
DWIDTH 13 0
BBX 13 4 0 11
BITMAP
0AAA8540
25555980
29555600
58AAA900
ENDCHAR
STARTCHAR hungarumlaut
ENCODING 733
SWIDTH 837 0
DWIDTH 17 0
BBX 15 5 1 14
BITMAP
00240060
02990658
29A46590
9A425900
24005000
ENDCHAR
STARTCHAR uni0307
ENCODING 775
SWIDTH 260 0
DWIDTH 5 0
BBX 4 5 1 7
BITMAP
54
54
A9
54
54
ENDCHAR
STARTCHAR uni030F
ENCODING 783
SWIDTH 554 0
DWIDTH 11 0
BBX 10 7 0 15
BITMAP
541100
290A00
260940
1A0580
094250
058260
0291A0
ENDCHAR
STARTCHAR uni0311
ENCODING 785
SWIDTH 375 0
DWIDTH 8 0
BBX 6 3 1 15
BITMAP
6A80
AA50
0050
ENDCHAR
STARTCHAR uni0326
ENCODING 806
SWIDTH 274 0
DWIDTH 5 0
BBX 4 7 1 -8
BITMAP
55
A5
A5
25
65
58
A0
ENDCHAR
STARTCHAR Omega
ENCODING 937
SWIDTH 92 0
DWIDTH 2 0
BBX 1 1 0 0
BITMAP
00
ENDCHAR
STARTCHAR uni00B5.dup2
ENCODING 956
SWIDTH 802 0
DWIDTH 16 0
BBX 15 16 1 -2
BITMAP
A5802594
A5802594
A5802594
A5802594
A5802594
A5802594
A5802594
A5802594
A58025A0
A59599A0
A5956660
A5AA9980
A595A640
A5955900
A59A9000
A5800000
ENDCHAR
STARTCHAR pi
ENCODING 960
SWIDTH 92 0
DWIDTH 2 0
BBX 1 1 0 0
BITMAP
00
ENDCHAR
STARTCHAR endash
ENCODING 8211
SWIDTH 473 0
DWIDTH 9 0
BBX 8 4 1 6
BITMAP
AAA9
5555
5555
AAA9
ENDCHAR
STARTCHAR emdash
ENCODING 8212
SWIDTH 615 0
DWIDTH 12 0
BBX 11 4 1 6
BITMAP
AAAAA4
555554
555550
AAAAA4
ENDCHAR
STARTCHAR quoteleft
ENCODING 8216
SWIDTH 254 0
DWIDTH 5 0
BBX 5 6 0 10
BITMAP
1A00
2640
6800
5940
5940
5940
ENDCHAR
STARTCHAR quoteright
ENCODING 8217
SWIDTH 251 0
DWIDTH 5 0
BBX 5 6 0 10
BITMAP
6940
6940
1940
0940
2600
2900
ENDCHAR
STARTCHAR quotesinglbase
ENCODING 8218
SWIDTH 252 0
DWIDTH 5 0
BBX 5 7 0 -3
BITMAP
1500
5940
5940
0940
1A40
1600
2800
ENDCHAR
STARTCHAR quotedblleft
ENCODING 8220
SWIDTH 535 0
DWIDTH 11 0
BBX 10 6 0 10
BITMAP
1A02A0
264560
680980
594990
5949A0
5949A0
ENDCHAR
STARTCHAR quotedblright
ENCODING 8221
SWIDTH 532 0
DWIDTH 11 0
BBX 10 6 0 10
BITMAP
6949A0
6949A0
1945A0
094160
260660
290680
ENDCHAR
STARTCHAR quotedblbase
ENCODING 8222
SWIDTH 533 0
DWIDTH 11 0
BBX 10 7 0 -3
BITMAP
150450
5949A0
5949A0
094560
1A4660
160550
280640
ENDCHAR
STARTCHAR dagger
ENCODING 8224
SWIDTH 636 0
DWIDTH 13 0
BBX 12 16 0 0
BITMAP
00A680
00A680
00A680
6AA6AA
55A695
15A695
6AA6AA
00A680
00A680
00A680
00A680
00A680
00A680
00A680
00A680
00A680
ENDCHAR
STARTCHAR daggerdbl
ENCODING 8225
SWIDTH 648 0
DWIDTH 13 0
BBX 13 16 0 0
BITMAP
00968000
00968000
00968000
2A96AA00
6A96AA40
15969500
15969500
00968000
00968000
2A96AA00
15969500
2A96AA00
6A96AA40
00968000
00968000
00968000
ENDCHAR
STARTCHAR bullet
ENCODING 8226
SWIDTH 501 0
DWIDTH 10 0
BBX 10 10 0 2
BITMAP
005000
0A5A00
26A980
250680
580250
580250
250680
25A580
0A5A00
005000
ENDCHAR
STARTCHAR ellipsis
ENCODING 8230
SWIDTH 676 0
DWIDTH 14 0
BBX 12 4 1 0
BITMAP
A8A969
545455
A9A969
A9A9AA
ENDCHAR
STARTCHAR perthousand
ENCODING 8240
SWIDTH 447 0
DWIDTH 9 0
BBX 9 18 0 -2
BITMAP
005940
009A00
009600
00A600
016500
026800
025800
029800
059400
09A000
096000
0A6000
165000
268000
258000
298000
594000
5A0000
ENDCHAR
STARTCHAR guilsinglleft
ENCODING 8249
SWIDTH 465 0
DWIDTH 9 0
BBX 9 10 0 2
BITMAP
000640
01A540
196900
169640
65A400
1A5A00
29A540
069640
001A00
000140
ENDCHAR
STARTCHAR guilsinglright
ENCODING 8250
SWIDTH 465 0
DWIDTH 9 0
BBX 8 10 1 2
BITMAP
A400
5A40
6969
A5A5
0A59
6469
5A59
9690
6900
4000
ENDCHAR
STARTCHAR fraction
ENCODING 8260
SWIDTH 447 0
DWIDTH 9 0
BBX 9 18 0 -2
BITMAP
005940
009A00
009600
00A600
016500
026800
025800
029800
059400
09A000
096000
0A6000
165000
268000
258000
298000
594000
5A0000
ENDCHAR
STARTCHAR uni2074
ENCODING 8308
SWIDTH 528 0
DWIDTH 11 0
BBX 10 13 0 3
BITMAP
016600
026900
069800
09A400
1A6000
269680
258580
6AAAA0
155550
155550
6AAAA0
000580
000580
ENDCHAR
STARTCHAR Euro
ENCODING 8364
SWIDTH 781 0
DWIDTH 16 0
BBX 15 18 0 -1
BITMAP
0001AAA4
001A5554
00669564
0199AAA0
02665A50
05999050
09A60000
5A69A900
0A585400
5A695500
19695500
09A60000
06999550
02665550
00996A90
0066A5A4
000A5558
00006A90
ENDCHAR
STARTCHAR trademark
ENCODING 8482
SWIDTH 1503 0
DWIDTH 30 0
BBX 30 13 0 4
BITMAP
1555540000000000
6AAAA865800029D0
6AAAA86650009A90
155554596001A690
15AA545998026990
0096005A58069A90
009600596609A690
009600599A166690
0096005A59A69690
0096005A26999690
0096005A16661690
0096005A09A61690
0096005905981640
ENDCHAR
STARTCHAR partialdiff
ENCODING 8706
SWIDTH 108 0
DWIDTH 2 0
BBX 1 1 0 0
BITMAP
00
ENDCHAR
STARTCHAR uni2206
ENCODING 8710
SWIDTH 108 0
DWIDTH 2 0
BBX 1 1 0 0
BITMAP
00
ENDCHAR
STARTCHAR product
ENCODING 8719
SWIDTH 521 0
DWIDTH 10 0
BBX 10 14 0 0
BITMAP
036500
06A600
099A00
0A6980
162580
259650
598A60
698A60
259650
165580
0A6980
09A600
059A00
025D00
ENDCHAR
STARTCHAR summation
ENCODING 8721
SWIDTH 108 0
DWIDTH 2 0
BBX 1 1 0 0
BITMAP
00
ENDCHAR
STARTCHAR minus
ENCODING 8722
SWIDTH 555 0
DWIDTH 11 0
BBX 10 4 1 7
BITMAP
AAAA80
555540
AAAA80
AAAA90
ENDCHAR
STARTCHAR radical
ENCODING 8730
SWIDTH 108 0
DWIDTH 2 0
BBX 1 1 0 0
BITMAP
00
ENDCHAR
STARTCHAR infinity
ENCODING 8734
SWIDTH 108 0
DWIDTH 2 0
BBX 1 1 0 0
BITMAP
00
ENDCHAR
STARTCHAR integral
ENCODING 8747
SWIDTH 362 0
DWIDTH 7 0
BBX 7 19 0 -2
BITMAP
00A8
0654
0994
0A68
0A50
0A50
0A50
0A50
0A50
0A50
0A50
0A50
0A50
0A50
1A50
6690
6980
1A00
5400
ENDCHAR
STARTCHAR approxequal
ENCODING 8776
SWIDTH 665 0
DWIDTH 13 0
BBX 13 9 0 6
BITMAP
0AAA8540
25555980
29555600
58AAA900
00000000
0AAA8540
25555980
29555600
58AAA900
ENDCHAR
STARTCHAR notequal
ENCODING 8800
SWIDTH 473 0
DWIDTH 9 0
BBX 9 18 0 -2
BITMAP
005940
009A00
009600
00A600
2BFF40
2BFE40
17AD40
2BEE40
059400
1EF540
1EB540
2FFA40
2FFA40
269500
258000
298000
594000
5A0000
ENDCHAR
STARTCHAR lessequal
ENCODING 8804
SWIDTH 108 0
DWIDTH 2 0
BBX 1 1 0 0
BITMAP
00
ENDCHAR
STARTCHAR greaterequal
ENCODING 8805
SWIDTH 108 0
DWIDTH 2 0
BBX 1 1 0 0
BITMAP
00
ENDCHAR
STARTCHAR lozenge
ENCODING 9674
SWIDTH 521 0
DWIDTH 10 0
BBX 10 14 0 0
BITMAP
036500
06A600
099A00
0A6980
162580
259650
598A60
698A60
259650
165580
0A6980
09A600
059A00
025D00
ENDCHAR
STARTCHAR uniF8FF
ENCODING 63743
SWIDTH 108 0
DWIDTH 2 0
BBX 1 1 0 0
BITMAP
00
ENDCHAR
STARTCHAR uniFB01
ENCODING 64257
SWIDTH 962 0
DWIDTH 19 0
BBX 18 14 1 0
BITMAP
A5AAA89A50
A5AAA89A50
A595549A50
A595549A50
A580009A50
A595509A50
A595509A50
A5AAA49A50
A5AAA49A50
A580009A50
A580009A50
A580009A50
A580009A50
A580009A50
ENDCHAR
STARTCHAR uniFB02
ENCODING 64258
SWIDTH 1208 0
DWIDTH 24 0
BBX 23 14 1 0
BITMAP
A5AAA89A5000
A5AAA89A5000
A595549A5000
A595549A5000
A580009A5000
A595509A5000
A595509A5000
A5AAA49A5000
A5AAA49A5000
A580009A5000
A580009A6AA4
A580009A6550
A580009A6AA4
A580009A6AA4
ENDCHAR
STARTCHAR .notdef
ENCODING -1
SWIDTH 108 0
DWIDTH 2 0
BBX 1 1 0 0
BITMAP
00
ENDCHAR
ENDFONT
